<?xml version="1.0" standalone="no"?>
<!DOCTYPE svg PUBLIC "-//W3C//DTD SVG 20010904//EN"
 "http://www.w3.org/TR/2001/REC-SVG-20010904/DTD/svg10.dtd">
<svg version="1.0" xmlns="http://www.w3.org/2000/svg"
 width="1222.000000pt" height="1222.000000pt" viewBox="0 0 1222.000000 1222.000000"
 preserveAspectRatio="xMidYMid meet">

<g transform="translate(0.000000,1222.000000) scale(0.100000,-0.100000)"
fill="#000000" stroke="none">
<path d="M5865 12214 c-468 -28 -769 -69 -1144 -156 -862 -199 -1671 -587
-2379 -1141 -394 -308 -824 -749 -1124 -1151 -544 -729 -921 -1574 -1097
-2461 -157 -791 -153 -1644 10 -2434 412 -1989 1800 -3650 3689 -4418 188 -76
574 -203 765 -252 832 -211 1709 -247 2546 -106 588 99 1119 272 1664 540 532
262 961 551 1390 937 1118 1004 1822 2371 1989 3858 41 365 46 928 11 1270
-189 1859 -1176 3495 -2725 4515 -850 560 -1795 887 -2830 980 -160 15 -643
27 -765 19z m2107 -1056 c-5 -36 -28 -68 -48 -68 -16 0 -32 52 -18 57 7 2 65
37 70 42 0 1 -1 -14 -4 -31z m875 -4 c13 -13 14 -19 3 -39 -10 -19 -17 -22
-31 -15 -28 16 -32 30 -13 51 21 23 21 23 41 3z m-2509 -129 c7 -14 12 -32 12
-40 0 -16 -39 -47 -50 -40 -8 5 -10 85 -3 98 9 15 30 6 41 -18z m462 -49 c0
-32 97 -92 159 -100 47 -5 161 -81 161 -107 0 -5 -16 -7 -37 -4 -21 3 -53 7
-72 10 -18 2 -42 7 -52 10 -14 5 -22 0 -28 -17 -5 -13 -5 -28 0 -34 6 -8 -9
-13 -53 -17 -35 -3 -64 -4 -66 -3 -1 2 2 16 8 31 16 42 -6 79 -50 83 -32 3
-36 0 -52 -35 -15 -36 -15 -39 1 -58 31 -35 33 -55 8 -64 -31 -12 -109 -89
-124 -123 -11 -24 -9 -29 23 -56 27 -23 35 -39 38 -68 3 -40 -10 -94 -26 -105
-5 -3 -8 -26 -6 -49 3 -42 5 -44 48 -60 64 -23 116 -48 187 -93 34 -21 67 -36
73 -32 16 10 11 33 -9 40 -17 5 -32 35 -36 75 -1 8 -10 32 -18 53 -19 44 -11
73 37 136 32 43 33 61 1 85 -14 10 -25 23 -25 29 0 6 -7 19 -17 29 -9 10 -14
21 -11 24 10 9 78 12 84 3 3 -5 13 -9 22 -8 10 0 12 3 5 6 -10 3 -10 8 1 19 8
8 19 14 25 14 6 0 11 5 11 11 0 5 4 8 9 4 5 -3 12 -1 15 4 6 8 69 7 111 -3 11
-2 32 -5 48 -5 24 -1 27 -5 27 -35 0 -25 -5 -36 -19 -41 -19 -6 -50 -68 -70
-140 -14 -51 -14 -52 4 -52 8 0 15 4 15 9 0 4 11 8 25 8 50 0 102 -75 89 -127
-4 -14 -28 -68 -55 -120 -26 -52 -46 -100 -43 -108 8 -19 -23 -13 -89 19 -48
22 -155 58 -167 55 -3 -1 -22 6 -42 14 -21 9 -38 14 -38 12 0 -2 -15 1 -32 6
-18 6 -46 13 -63 15 -16 3 -46 9 -65 15 -19 5 -54 9 -77 9 -24 0 -43 4 -43 9
0 9 -91 13 -325 14 -153 1 -209 -4 -310 -26 -16 -4 -41 -9 -55 -11 -14 -3 -40
-9 -57 -15 -18 -5 -33 -8 -33 -6 0 2 -15 -2 -34 -10 -18 -8 -44 -16 -57 -19
-32 -5 -133 -40 -192 -65 -26 -11 -51 -21 -55 -21 -4 -1 -40 -19 -81 -41 -106
-58 -115 -63 -121 -70 -3 -3 -40 -27 -82 -54 -43 -27 -78 -52 -78 -57 0 -4 -7
-8 -15 -8 -9 0 -18 -7 -21 -15 -3 -8 -21 -24 -40 -36 -19 -11 -31 -26 -28 -31
4 -7 2 -8 -4 -4 -20 12 -77 -93 -78 -144 -1 -49 22 -111 53 -140 26 -23 98
-43 205 -54 11 -1 48 -44 48 -56 0 -6 -6 -8 -12 -4 -10 5 -10 4 -2 -5 6 -7 20
-14 30 -15 26 -4 29 -23 5 -36 -12 -6 -21 -7 -21 -3 -1 22 -30 -35 -30 -58 0
-14 -7 -43 -15 -62 -23 -55 -21 -59 33 -55 39 3 51 0 70 -19 19 -19 43 -27 72
-25 3 0 42 4 88 7 54 5 82 4 82 -3 0 -6 3 -17 6 -26 4 -11 1 -16 -10 -16 -19
0 -22 -16 -3 -18 40 -3 84 -3 97 1 38 9 60 19 60 28 0 6 4 8 9 4 5 -3 12 3 16
14 3 12 18 20 43 24 20 4 46 8 57 11 11 2 23 5 27 5 6 1 4 46 -2 46 -1 0 -4
15 -6 33 -3 19 -1 32 5 32 20 0 11 37 -11 48 -22 10 -21 11 9 11 29 1 148 -46
175 -69 7 -6 63 -47 123 -92 61 -45 114 -88 118 -95 4 -7 14 -13 21 -13 8 0
16 -7 20 -15 3 -8 12 -15 21 -15 8 0 15 -5 15 -10 0 -6 8 -14 18 -17 16 -7 24
-12 55 -38 7 -6 46 -32 87 -58 41 -25 80 -50 85 -54 23 -19 167 -84 177 -81
12 4 -74 61 -108 72 -10 3 -31 16 -46 29 -15 13 -39 32 -53 43 -14 10 -43 35
-64 54 -20 19 -59 53 -85 75 -27 22 -58 49 -70 61 -12 11 -33 29 -48 39 -27
17 -37 35 -20 35 5 0 22 -11 38 -25 16 -14 34 -25 41 -25 6 0 13 -4 15 -8 2
-5 47 -39 100 -75 75 -51 104 -66 130 -65 28 1 133 -42 148 -61 3 -3 23 -15
45 -26 22 -11 46 -26 53 -32 7 -7 20 -13 28 -13 8 0 14 -4 14 -9 0 -5 9 -13
20 -16 11 -3 20 -15 20 -25 0 -10 9 -22 20 -25 25 -8 26 -22 3 -27 -13 -3 -2
-14 37 -40 125 -82 266 -197 383 -313 67 -66 192 -206 229 -257 48 -64 79
-104 88 -115 5 -7 10 -17 10 -23 0 -5 4 -10 8 -10 5 0 14 -11 20 -25 6 -14 16
-25 22 -25 15 0 12 26 -5 44 -8 8 -15 19 -15 25 0 5 -8 15 -17 20 -10 6 -13
11 -8 11 6 0 6 3 0 8 -14 9 -55 68 -55 78 0 4 16 -9 35 -30 19 -21 35 -43 35
-48 0 -5 7 -11 15 -14 8 -4 15 -12 15 -20 0 -8 5 -14 10 -14 6 0 10 -7 10 -15
0 -8 4 -15 9 -15 5 0 11 -8 15 -17 5 -18 26 -53 36 -63 3 -3 11 -16 18 -30 7
-14 23 -43 36 -65 66 -112 192 -374 205 -427 3 -15 13 -44 26 -78 14 -38 42
-132 50 -167 12 -56 14 -64 19 -71 3 -5 8 -22 11 -38 3 -16 7 -33 9 -39 21
-74 28 -95 32 -95 7 0 -7 123 -20 185 -7 32 -65 218 -75 240 -41 91 -51 116
-51 126 0 6 -6 23 -14 37 -30 57 -79 168 -79 180 0 6 -4 12 -9 12 -5 0 -6 5
-3 10 3 6 2 10 -3 10 -6 0 -22 29 -36 65 -14 36 -42 89 -61 117 -19 27 -35 56
-35 64 0 8 -4 14 -8 14 -5 0 -19 25 -31 55 -13 30 -27 55 -32 55 -5 0 -9 5 -9
11 0 11 -75 125 -97 147 -7 7 -13 17 -13 20 0 4 -19 28 -43 54 -36 40 -57 65
-119 143 -5 6 -17 21 -28 34 -11 13 -35 44 -53 69 -17 24 -42 55 -54 69 -13
13 -23 27 -23 30 0 3 -11 18 -24 32 -14 14 -44 47 -68 73 -80 86 -96 103 -135
141 -22 20 -45 37 -51 37 -6 0 -16 8 -21 18 -6 11 -34 37 -63 59 -29 23 -73
59 -98 82 -25 22 -48 41 -51 41 -3 0 -20 12 -37 28 -35 31 -40 35 -107 82 -28
19 -51 38 -53 42 -2 4 -10 8 -18 8 -8 0 -14 5 -14 10 0 6 -5 10 -12 10 -6 0
-26 11 -44 25 -18 14 -35 25 -39 25 -3 0 -32 17 -63 37 -87 57 -291 153 -332
158 -3 0 -35 9 -72 19 -58 17 -65 21 -50 32 10 7 33 15 52 18 19 3 46 8 60 11
111 24 447 24 607 1 47 -7 165 -37 184 -47 9 -4 31 -11 49 -14 18 -3 38 -9 44
-13 6 -4 13 -7 16 -8 3 0 25 -6 49 -13 43 -12 55 -17 98 -39 13 -7 28 -12 35
-12 11 0 35 -10 154 -66 28 -13 56 -24 62 -24 7 0 12 -5 12 -12 0 -6 3 -9 6
-5 7 7 195 -91 206 -107 5 -7 8 -7 8 -1 0 6 3 6 8 -1 4 -6 33 -23 65 -39 31
-16 57 -33 57 -37 0 -4 5 -8 11 -8 6 0 25 -10 42 -22 35 -25 64 -43 87 -54 8
-4 17 -10 20 -13 3 -3 16 -12 29 -19 13 -8 39 -23 59 -33 19 -11 36 -18 38
-16 10 9 -57 66 -153 131 -57 39 -103 71 -103 73 0 13 182 -101 188 -118 2 -5
8 -9 14 -9 6 0 29 -13 53 -29 24 -16 53 -32 64 -36 12 -3 21 -10 21 -14 0 -5
14 -14 30 -21 17 -7 30 -16 30 -21 0 -5 6 -9 14 -9 7 0 41 -26 74 -57 156
-149 217 -203 228 -203 4 0 28 -21 54 -47 26 -27 64 -64 86 -84 38 -35 74 -75
74 -83 0 -5 123 -190 143 -216 7 -8 21 -32 32 -53 11 -20 23 -37 27 -37 4 0
12 -16 19 -35 7 -19 16 -35 20 -35 4 0 10 -11 13 -25 4 -14 11 -25 17 -25 6 0
7 -4 4 -10 -3 -5 -2 -10 4 -10 5 0 15 -16 21 -35 6 -19 16 -35 21 -35 6 0 7
-4 4 -10 -3 -5 -2 -10 3 -10 10 0 42 -64 42 -85 0 -7 3 -15 8 -17 9 -4 152
-284 152 -298 0 -5 -10 -10 -21 -10 -22 0 -22 0 -5 -55 2 -5 14 -32 27 -60 13
-27 23 -53 24 -57 0 -3 4 -10 8 -15 5 -4 15 -23 22 -40 11 -25 20 -33 39 -33
25 0 66 -41 66 -66 0 -8 4 -22 10 -32 8 -14 61 -171 66 -194 1 -5 2 -9 4 -10
2 -3 5 -18 14 -56 3 -12 7 -26 10 -30 3 -5 7 -19 10 -33 3 -13 7 -34 10 -46 4
-13 8 -33 12 -45 3 -13 7 -34 10 -47 3 -14 7 -28 9 -32 3 -4 9 -35 14 -70 6
-35 12 -75 15 -89 8 -37 19 -113 31 -207 36 -302 23 -770 -30 -1003 -3 -14 -8
-41 -11 -60 -14 -87 -68 -274 -87 -297 -5 -7 -7 -13 -3 -13 8 0 -23 -48 -51
-80 -13 -14 -23 -28 -23 -32 0 -3 -7 -14 -16 -22 -8 -9 -17 -25 -19 -36 -2
-11 -7 -25 -10 -30 -4 -6 -9 -23 -11 -38 -5 -28 -9 -36 -61 -133 -17 -31 -40
-87 -52 -125 -21 -68 -50 -134 -62 -144 -15 -13 -40 -74 -36 -90 3 -10 -6 -24
-24 -36 -22 -14 -29 -27 -29 -51 0 -22 -5 -33 -14 -33 -8 0 -17 -6 -19 -12 -3
-8 -6 -6 -6 5 -2 32 -17 17 -30 -30 -8 -27 -26 -63 -40 -82 -52 -69 -280 -303
-367 -377 -27 -23 -67 -57 -88 -75 -50 -42 -106 -102 -106 -111 0 -17 24 -6
63 27 22 19 47 35 54 35 7 0 13 5 13 10 0 6 6 10 13 10 8 0 24 11 37 25 13 14
29 25 37 25 7 0 13 4 13 8 0 5 19 23 43 40 81 60 236 220 361 372 90 110 279
382 291 419 3 11 12 27 18 34 36 39 177 337 192 407 4 16 11 32 16 35 5 4 9
13 9 22 0 18 17 58 71 168 22 44 42 90 44 103 3 12 7 30 9 40 14 55 49 211 52
237 3 17 7 41 11 55 3 14 7 41 9 60 2 19 9 73 15 120 26 210 33 333 34 532 0
217 13 206 40 -32 13 -110 15 -148 20 -325 4 -172 -6 -278 -40 -425 -3 -14 -8
-41 -11 -60 -3 -19 -7 -42 -10 -50 -3 -8 -8 -26 -10 -40 -2 -14 -7 -36 -10
-50 -3 -14 -6 -26 -5 -27 0 -2 -5 -17 -10 -35 -15 -48 -17 -58 -35 -143 -3
-16 -11 -36 -16 -42 -6 -7 -8 -13 -4 -13 3 0 -1 -17 -9 -37 -9 -21 -15 -38
-14 -38 4 0 -25 -97 -42 -139 -11 -27 -22 -56 -24 -66 -2 -10 -16 -44 -31 -76
-16 -33 -27 -62 -26 -66 1 -5 -2 -8 -8 -8 -6 0 -9 -4 -8 -8 3 -8 -31 -81 -42
-92 -13 -13 -83 -149 -86 -167 -1 -6 4 -9 12 -6 8 3 4 -11 -11 -39 -14 -23
-28 -51 -31 -60 -4 -10 -10 -18 -15 -18 -5 0 -9 -7 -9 -15 0 -8 -4 -15 -10
-15 -5 0 -10 -7 -10 -15 0 -8 -4 -15 -10 -15 -5 0 -10 -4 -10 -10 0 -8 -54
-90 -83 -125 -4 -5 -32 -42 -60 -80 -29 -39 -65 -86 -82 -105 -46 -55 -337
-342 -379 -375 -22 -16 -47 -38 -57 -48 -11 -9 -23 -17 -28 -17 -5 0 -11 -4
-13 -8 -1 -4 -28 -19 -58 -34 -308 -147 -409 -200 -418 -220 -2 -5 -9 -8 -16
-8 -20 0 -186 -190 -186 -214 0 -5 35 -1 76 8 11 2 37 11 57 20 20 8 37 13 37
11 0 -5 150 71 167 85 7 6 15 10 18 10 3 0 18 11 33 25 15 14 30 25 34 25 4 0
17 8 27 17 11 9 30 18 43 20 41 6 52 13 40 25 -7 7 1 21 30 49 23 22 45 39 49
39 5 0 41 32 80 71 64 64 224 179 248 179 5 0 14 6 20 14 9 11 9 15 0 18 -8 3
1 18 22 40 32 33 102 113 148 168 11 14 20 20 21 14 0 -6 -9 -19 -20 -29 -25
-23 -26 -35 -1 -30 21 4 63 36 101 78 14 15 49 53 77 83 29 31 50 60 47 65 -3
5 0 9 5 9 6 0 11 6 11 13 0 12 76 111 123 160 31 33 58 67 87 110 14 20 28 37
33 37 4 0 7 7 7 15 0 8 4 15 9 15 4 0 21 24 36 53 42 78 134 264 165 332 47
103 164 471 186 585 3 14 11 52 20 85 8 33 17 78 20 100 2 22 7 47 9 55 14 48
30 189 40 355 8 126 14 184 21 225 4 19 6 107 5 194 -2 156 3 190 14 111 24
-175 24 -472 0 -680 -2 -22 -7 -73 -10 -114 -4 -41 -8 -78 -11 -82 -2 -4 2
-13 9 -21 19 -20 13 -91 -19 -213 -3 -11 -7 -31 -10 -45 -3 -14 -9 -43 -14
-65 -12 -50 -12 -64 -1 -45 5 8 10 18 11 22 1 4 6 22 11 40 18 60 21 71 45
208 22 128 23 133 30 225 3 44 10 109 14 145 8 61 5 543 -4 620 -6 56 -17 143
-21 170 -2 14 -6 43 -9 64 -9 59 -15 89 -31 166 -8 38 -17 82 -20 97 -2 16 -9
43 -14 61 -5 18 -10 36 -11 40 0 4 -5 23 -10 42 -5 19 -11 46 -14 60 -10 46
-26 115 -32 130 -3 8 -5 15 -4 15 1 0 -8 24 -19 53 -11 28 -23 66 -26 84 -3
18 -11 38 -17 45 -6 7 -7 13 -3 13 4 0 2 7 -5 15 -7 8 -9 15 -5 15 4 0 2 7 -5
15 -7 8 -9 15 -5 15 4 0 3 6 -2 13 -5 6 -22 48 -37 92 -31 90 -35 101 -65 166
-12 26 -23 56 -26 67 -2 11 -11 32 -20 46 -10 14 -14 26 -10 26 4 0 -5 20 -19
45 -15 25 -24 45 -21 45 2 0 -20 49 -50 109 -30 60 -55 114 -55 120 0 6 -5 11
-11 11 -5 0 -7 5 -4 10 3 6 1 10 -5 10 -6 0 -8 5 -5 10 3 6 1 10 -5 10 -6 0
-8 5 -5 10 3 6 2 10 -3 10 -4 0 -18 21 -30 48 -12 26 -33 65 -47 87 -14 22
-29 49 -35 60 -6 11 -19 34 -30 50 -11 17 -24 39 -30 50 -6 11 -19 34 -30 50
-11 17 -24 39 -30 50 -16 33 -34 60 -45 67 -6 5 -5 8 3 8 20 0 62 46 74 81 10
29 12 30 53 24 39 -6 43 -5 49 19 8 31 -3 109 -17 117 -5 4 -25 -2 -43 -13
l-33 -19 5 23 c15 65 15 86 0 91 -30 12 -46 -35 -50 -151 -2 -34 -5 -64 -8
-67 -2 -3 -28 -7 -56 -10 -54 -5 -55 -4 -102 65 -27 40 -75 98 -153 183 -126
138 -232 241 -352 342 -27 22 -65 56 -86 75 -21 19 -52 46 -70 60 -18 14 -47
37 -64 53 -18 15 -38 27 -44 27 -6 0 -11 5 -11 10 0 6 -5 10 -11 10 -6 0 -24
9 -39 20 -16 11 -43 23 -60 27 -30 6 -31 5 -19 -14 7 -12 24 -28 38 -36 14 -9
42 -31 61 -51 19 -19 41 -36 48 -36 6 0 12 -4 12 -10 0 -5 12 -16 28 -24 15
-8 39 -26 54 -40 15 -14 29 -26 31 -26 10 0 90 -81 85 -86 -3 -3 -17 5 -30 18
-26 25 -75 65 -108 88 -12 8 -31 23 -42 33 -12 9 -24 17 -27 17 -3 0 -18 10
-33 23 -14 12 -36 29 -48 37 -12 8 -30 22 -40 30 -23 19 -39 30 -127 87 -56
36 -73 52 -73 70 0 16 -6 23 -20 23 -11 0 -20 -6 -20 -12 0 -9 -2 -10 -8 -2
-4 7 -24 19 -44 27 -25 10 -38 23 -38 34 0 11 -5 24 -12 31 -7 7 -8 12 -4 12
5 0 4 6 -1 13 -14 17 -26 67 -24 98 3 40 -63 62 -107 35 -4 -2 -32 9 -62 26
-100 56 -131 69 -150 63 -23 -7 -36 -34 -39 -79 -1 -22 -3 -23 -26 -13 -21 10
-24 17 -20 37 4 13 8 39 11 57 2 17 11 50 20 72 l16 40 49 -19 c66 -26 82 -25
101 8 24 40 54 73 61 65 4 -3 5 4 2 15 -3 16 1 20 16 17 10 -2 23 -6 27 -9 4
-2 14 -1 21 3 11 7 11 13 0 32 -7 13 -14 32 -16 41 -3 20 29 33 54 20 27 -14
81 -22 98 -16 8 4 15 15 15 27 0 21 -26 57 -42 57 -16 0 -35 25 -32 40 3 15 9
40 20 83 3 12 6 28 6 35 2 23 16 12 49 -40 27 -43 74 -98 84 -98 2 0 16 7 31
15 42 22 47 20 79 -35 33 -55 50 -62 59 -25 6 24 -4 52 -33 88 -28 35 0 28 98
-24 l101 -52 -28 -27 c-26 -25 -51 -77 -68 -145 -4 -16 -8 -34 -10 -40 -2 -5
-5 -20 -8 -32 -29 -115 -29 -116 -11 -109 9 3 21 6 25 6 5 0 26 29 48 65 21
36 41 63 43 61 2 -2 30 -6 62 -9 33 -3 66 -12 76 -21 10 -9 25 -16 34 -16 23
0 21 -17 -3 -25 -11 -3 -35 -25 -53 -48 -55 -69 -55 -69 -2 -61 l48 7 -7 -37
c-4 -21 -10 -44 -13 -52 -3 -10 3 -14 21 -15 38 -2 44 -3 52 -11 4 -5 15 -8
25 -8 10 0 20 -10 23 -22 3 -13 3 0 1 29 -3 44 -1 51 13 48 9 -2 33 -4 53 -4
31 -1 38 -5 45 -28 4 -16 7 -31 6 -35 -1 -5 6 -13 16 -19 12 -8 17 -20 14 -39
-4 -25 -1 -27 22 -23 22 5 26 10 26 42 0 28 5 38 23 46 23 10 34 50 19 72 -9
14 -78 19 -138 9 -36 -5 -42 -3 -54 18 -10 20 -17 23 -35 16 -13 -5 -26 -6
-29 -3 -3 4 -6 1 -6 -5 0 -7 -8 -12 -17 -12 -9 0 -13 3 -10 6 3 4 2 15 -3 24
-7 13 -5 29 5 54 21 51 19 74 -12 102 -23 21 -26 32 -25 77 0 29 2 57 3 62 2
6 -1 21 -5 34 -7 19 -13 22 -38 17 -28 -5 -30 -4 -24 17 4 12 8 29 11 37 7 31
24 68 33 74 4 3 20 7 35 10 15 3 36 8 47 11 26 8 26 -14 0 -43 -11 -12 -20
-26 -20 -32 0 -5 -4 -10 -9 -10 -5 0 -12 -8 -15 -17 -10 -25 14 -39 90 -54 48
-10 63 -16 59 -27 -3 -8 2 -35 11 -60 9 -26 19 -68 23 -93 l6 -47 38 33 c35
31 38 36 25 53 -8 12 -12 37 -10 64 3 40 6 44 30 43 20 0 27 -5 28 -20 1 -43
15 -95 25 -90 5 4 9 2 9 -4 0 -5 9 -12 19 -16 19 -6 27 -24 37 -80 4 -16 10
-37 14 -46 24 -43 -16 -237 -55 -269 -8 -7 -15 -18 -15 -24 0 -14 -79 -64
-118 -75 -26 -8 -29 -7 -25 10 3 10 2 30 -1 44 -6 22 -10 24 -34 19 -15 -3
-54 -7 -86 -8 -35 -2 -62 -8 -64 -14 -2 -7 8 -12 26 -12 35 0 72 -30 72 -58 0
-19 -4 -20 -55 -15 l-55 6 0 -32 c0 -36 5 -38 44 -12 21 14 40 18 70 15 49 -6
53 -10 58 -49 4 -38 24 -42 82 -14 37 17 49 19 61 9 8 -7 15 -17 15 -22 0 -6
11 -23 24 -39 l24 -28 42 30 c59 43 76 36 116 -41 19 -37 39 -64 46 -62 14 4
40 10 76 17 50 9 97 29 112 47 8 10 22 20 30 21 8 2 20 6 27 10 15 10 22 -34
20 -132 -2 -66 -5 -76 -27 -92 -14 -10 -37 -20 -52 -23 -60 -10 -90 -52 -63
-89 10 -14 89 -40 97 -32 2 2 23 6 48 10 25 3 54 9 64 12 16 4 18 1 13 -18 -4
-13 -7 -34 -7 -47 0 -26 -45 -72 -70 -72 -10 0 -23 -6 -29 -14 -10 -12 -8 -17
11 -27 13 -7 26 -12 30 -11 4 1 11 -10 14 -23 4 -14 9 -24 13 -23 13 8 146 71
151 73 76 24 120 15 120 -25 0 -23 -7 -32 -42 -49 -42 -20 -43 -21 -45 -76 -2
-45 0 -55 13 -55 9 0 24 -9 34 -20 11 -13 34 -21 72 -24 88 -8 93 -13 88 -74
-2 -22 2 -23 42 -21 57 4 113 24 159 57 45 33 109 134 144 228 14 38 29 76 32
84 3 8 8 24 10 34 2 11 7 24 12 30 4 6 11 24 15 40 12 48 92 223 113 244 19
19 90 143 98 170 6 19 13 22 61 22 l54 0 -5 -32 c-8 -41 -30 -90 -71 -153 -18
-27 -36 -63 -40 -78 l-7 -29 46 5 c38 5 45 3 42 -11 -2 -9 -4 -18 -5 -19 -2
-2 -3 -6 -4 -10 -1 -5 -7 -18 -14 -30 -7 -13 -11 -23 -8 -23 3 0 -10 -33 -29
-72 -19 -40 -37 -90 -41 -110 -5 -33 -4 -38 12 -38 30 0 43 13 57 55 8 22 20
41 28 43 8 1 32 -14 54 -34 56 -51 82 -67 100 -60 8 3 14 9 14 13 -1 4 0 15 4
23 3 8 13 38 23 65 9 28 21 54 25 59 10 12 49 -21 49 -41 0 -8 5 -24 12 -36
23 -43 28 -103 14 -170 -8 -36 -7 -38 23 -48 31 -11 49 -33 56 -67 2 -9 9 -30
16 -47 19 -47 21 -57 21 -111 0 -42 -6 -61 -44 -120 -35 -55 -109 -235 -123
-298 -1 -6 -5 -18 -8 -26 -3 -8 -18 -51 -32 -94 -44 -133 -142 -339 -215 -451
-55 -84 -83 -143 -88 -181 -2 -24 -2 -44 1 -44 17 0 37 14 37 26 0 7 9 18 20
24 11 6 18 15 15 21 -4 5 -1 9 4 9 6 0 11 7 11 15 0 8 4 15 8 15 5 0 33 47 63
105 30 58 60 118 68 133 8 15 17 29 20 32 3 3 19 30 35 60 16 30 39 71 51 90
12 19 39 64 59 100 45 81 58 101 74 118 6 7 12 17 12 22 0 5 10 18 22 30 30
28 39 10 33 -68 -7 -77 -34 -160 -85 -262 -21 -41 -41 -87 -44 -103 -11 -45
-53 -131 -74 -148 -17 -15 -47 -28 -74 -35 -5 -1 -10 -3 -13 -4 -3 -1 -11 -3
-17 -4 -7 0 -14 -10 -16 -21 -8 -43 -33 -106 -49 -124 -53 -57 -111 -151 -123
-199 -7 -29 -10 -56 -7 -59 20 -20 101 72 141 159 17 38 36 50 94 56 6 1 12 9
12 19 0 15 48 122 60 133 3 3 25 34 50 70 24 36 48 67 52 68 4 2 8 10 8 17 0
7 3 15 8 17 17 8 107 226 116 282 1 6 4 16 7 21 4 6 9 22 13 36 3 15 22 46 41
69 19 23 35 46 35 51 0 5 6 9 14 9 7 0 19 7 26 15 15 19 34 9 25 -14 -4 -9 -8
-20 -9 -26 -20 -78 -46 -132 -158 -323 -21 -35 -38 -66 -38 -68 0 -2 -22 -50
-49 -107 -129 -271 -130 -272 -164 -311 -56 -64 -102 -199 -92 -271 2 -16 4
-30 5 -30 1 0 3 -8 5 -19 6 -30 62 -81 121 -110 29 -15 56 -27 59 -27 2 0 24
-7 47 -15 24 -9 50 -17 59 -19 30 -6 104 -43 127 -63 l23 -20 -28 -19 c-49
-33 -82 -44 -194 -67 -65 -13 -127 -74 -153 -148 -34 -100 -39 -109 -70 -126
-35 -18 -31 -17 -72 -27 -30 -7 -31 -7 -23 -53 14 -82 20 -106 28 -117 9 -10
28 -66 36 -104 3 -11 7 -31 10 -43 3 -13 12 -65 21 -117 17 -100 26 -123 60
-157 12 -11 27 -30 33 -42 10 -19 7 -22 -35 -38 -37 -14 -44 -21 -40 -37 2
-10 1 -30 -4 -43 -10 -25 -2 -44 56 -136 16 -24 29 -47 30 -53 1 -5 4 -19 7
-30 2 -11 9 -40 16 -64 18 -62 5 -241 -24 -330 -4 -13 -13 -17 -30 -13 -25 4
-25 4 -20 -62 4 -51 2 -66 -8 -66 -8 0 -26 -13 -41 -29 -96 -100 -83 -92 -121
-74 -31 15 -42 15 -88 4 -74 -19 -112 -45 -136 -94 -26 -53 -57 -99 -65 -98
-25 4 -28 -3 -23 -64 3 -36 3 -65 1 -65 -2 0 -24 15 -48 34 -25 19 -50 36 -56
38 -6 2 -13 21 -14 41 -2 27 0 35 7 28 20 -20 34 -11 35 20 l1 31 -62 -6 c-34
-4 -66 -11 -70 -15 -5 -5 -7 -26 -5 -47 2 -32 7 -40 25 -42 49 -7 90 -101 78
-179 -3 -24 -9 -43 -12 -43 -3 0 -29 11 -57 24 -35 17 -76 26 -133 30 l-83 5
0 -104 0 -105 53 0 c46 0 57 -4 81 -29 l28 -29 -23 -43 c-12 -24 -25 -46 -29
-49 -12 -8 -34 -54 -37 -77 -3 -21 10 -25 33 -11 11 7 56 18 87 21 25 3 37 26
26 54 -15 39 -11 53 15 53 35 0 59 -41 50 -88 -4 -20 -8 -45 -10 -55 -3 -16 2
-18 44 -14 26 3 54 6 62 8 19 5 15 -26 -8 -61 -27 -41 -61 -118 -68 -154 -7
-41 18 -92 50 -100 39 -11 49 -22 38 -42 -6 -11 -17 -34 -24 -51 -14 -35 -38
-42 -58 -18 -19 23 -26 19 -43 -23 -14 -33 -43 -69 -79 -97 -7 -6 -38 -22 -68
-37 -30 -14 -75 -45 -99 -67 -24 -22 -60 -45 -80 -51 -20 -7 -58 -20 -86 -30
-27 -11 -61 -22 -75 -25 -14 -2 -54 -11 -90 -19 -36 -8 -85 -17 -110 -20 -41
-5 -82 -11 -150 -21 -14 -2 -30 -4 -36 -4 -28 -2 -56 -176 -40 -248 4 -18 3
-40 -2 -49 -8 -14 -10 -14 -24 0 -15 14 -34 20 -108 32 -14 2 -34 6 -45 8 -11
3 -23 5 -27 5 -5 1 -8 28 -8 61 0 33 3 59 8 59 24 -4 43 4 52 22 13 23 21 59
15 59 -4 0 -79 -32 -182 -77 -37 -16 -40 -24 -17 -48 9 -8 18 -34 21 -56 5
-34 2 -44 -21 -67 l-26 -28 16 -74 c9 -41 19 -88 22 -105 6 -28 7 -98 1 -130
-4 -24 -39 -50 -70 -51 -17 -1 -40 9 -59 25 -42 35 -47 79 -20 169 25 83 24
117 -5 116 -62 -2 -138 -37 -157 -72 -19 -36 -15 -224 8 -337 3 -16 7 -44 8
-61 2 -17 6 -36 10 -43 4 -6 3 -11 -3 -11 -6 0 -21 19 -33 42 -25 49 -28 58
-42 143 -18 109 -26 123 -50 97 -16 -18 -38 -114 -30 -137 2 -5 5 -26 8 -45 7
-44 11 -65 24 -115 6 -22 13 -65 17 -95 4 -30 8 -64 10 -75 2 -11 6 -40 9 -65
4 -25 8 -56 11 -70 3 -14 8 -45 11 -69 3 -25 8 -49 11 -54 3 -5 -4 -6 -16 -2
-13 4 -21 2 -21 -5 0 -6 -4 -8 -10 -5 -5 3 -10 15 -10 27 0 30 -39 94 -66 109
-13 6 -35 30 -49 51 -25 38 -29 40 -63 33 -20 -4 -38 -8 -40 -10 -2 -2 1 -18
6 -37 10 -35 8 -167 -3 -258 -11 -91 -14 -122 -20 -190 -4 -36 -10 -82 -15
-102 -10 -46 -6 -180 6 -199 9 -15 10 -18 20 -62 5 -22 4 -26 -10 -21 -9 3
-16 10 -16 14 0 5 -8 11 -17 14 -34 11 -81 61 -107 114 -24 47 -25 52 -9 52
19 1 63 29 47 31 -24 2 -86 15 -91 19 -2 2 -7 4 -13 5 -5 1 -11 3 -12 5 -2 1
-11 3 -21 5 -24 5 -135 59 -174 85 -36 24 -38 22 -23 -30 6 -19 13 -48 16 -64
2 -16 9 -37 15 -47 5 -11 7 -19 3 -19 -3 0 -1 -7 6 -15 7 -8 10 -15 7 -15 -4
0 1 -19 9 -42 9 -24 18 -54 20 -67 3 -14 7 -28 10 -33 3 -4 3 -8 0 -8 -2 0
-23 30 -47 67 -23 38 -46 70 -51 71 -4 2 -8 10 -8 17 0 7 -4 15 -9 17 -11 3
-47 66 -87 148 -15 30 -35 66 -44 80 -9 14 -23 52 -30 85 -7 33 -15 65 -16 70
-2 6 -5 24 -9 40 -3 17 -8 41 -12 55 -9 35 -11 50 -19 95 -10 63 -11 78 -13
114 -1 43 -11 35 -17 -15 -12 -95 -23 -172 -30 -202 -3 -13 -7 -43 -10 -65 -6
-39 -26 -150 -39 -207 -6 -29 -13 -64 -20 -104 -7 -35 -33 -86 -44 -86 -20 0
-44 41 -56 99 -3 12 -7 30 -10 41 -13 52 -16 67 -21 90 -10 53 -12 66 -18 95
-9 43 -23 127 -26 155 -2 24 -26 -43 -29 -85 -3 -32 -18 -36 -57 -15 -21 12
-41 24 -43 26 -6 5 48 54 60 54 5 0 9 4 9 8 0 5 12 14 26 21 25 11 26 14 19
69 -10 74 -12 88 -20 142 -4 25 -8 56 -10 70 -5 40 -15 102 -21 140 -3 19 -7
50 -10 67 -2 18 -7 50 -10 70 -3 21 -6 43 -6 50 -1 7 -5 10 -10 7 -4 -3 -8 0
-8 6 0 6 -4 9 -9 6 -4 -3 -16 3 -25 13 -11 13 -14 21 -7 26 21 12 12 51 -14
65 -14 8 -24 19 -23 26 2 7 73 84 158 171 85 87 161 171 169 186 8 15 22 36
33 46 10 11 18 24 18 29 0 5 9 17 20 27 11 10 20 22 20 27 0 5 7 16 15 24 29
30 8 46 -33 25 -9 -5 -37 -18 -62 -29 -52 -24 -74 -41 -135 -99 -49 -48 -54
-50 -53 -25 0 9 -2 55 -6 101 -6 81 -16 104 -40 95 -6 -2 -22 -5 -36 -8 -14
-2 -37 -7 -52 -11 -26 -7 -27 -6 -19 22 5 15 16 47 24 69 l15 42 -44 7 c-24 3
-49 14 -56 24 -25 34 -61 45 -158 45 -77 1 -95 4 -96 16 0 8 4 20 9 27 17 23
-4 32 -71 29 -71 -2 -108 -18 -116 -49 -4 -16 -11 -18 -49 -12 -38 6 -48 4
-66 -14 -17 -17 -19 -25 -11 -47 8 -19 6 -31 -4 -46 -13 -18 -13 -24 1 -44 19
-29 9 -30 -56 -5 -65 24 -107 56 -235 176 -18 17 -45 41 -62 56 -16 14 -74 65
-129 115 -126 113 -239 204 -253 204 -6 0 -12 3 -14 8 -4 10 -103 62 -119 62
-23 0 41 -53 96 -78 36 -17 423 -408 392 -396 -9 3 -17 9 -17 13 0 3 -17 17
-38 31 -20 14 -53 40 -74 58 -20 19 -49 43 -65 55 -17 12 -37 29 -45 37 -42
41 -71 61 -86 58 -20 -3 -102 32 -102 44 0 4 -7 8 -15 8 -8 0 -15 5 -15 10 0
6 -6 10 -13 10 -8 0 -27 11 -42 24 -15 13 -40 30 -54 37 -24 13 -74 59 -131
124 -22 25 -22 28 -5 21 51 -21 60 -19 30 5 -16 13 -37 30 -45 38 -8 8 -49 43
-90 77 -72 61 -106 96 -239 249 -88 100 -91 104 -91 111 0 6 -86 121 -107 142
-7 7 -13 20 -13 28 0 8 -3 14 -7 14 -5 0 -17 18 -27 40 -11 22 -23 40 -28 40
-4 0 -8 5 -8 10 0 6 -9 20 -20 32 -11 12 -20 28 -20 35 0 7 -4 13 -10 13 -5 0
-10 7 -10 15 0 8 -4 15 -10 15 -5 0 -7 -8 -4 -18 8 -24 28 -66 35 -72 17 -15
50 -82 44 -88 -4 -4 -10 -1 -12 6 -3 7 -11 19 -19 26 -8 8 -14 19 -14 25 0 6
-4 11 -10 11 -5 0 -10 6 -10 14 0 8 -4 16 -8 18 -9 3 -101 187 -142 283 -12
28 -28 61 -35 75 -7 14 -13 27 -13 30 0 3 -7 22 -16 44 -9 21 -16 44 -16 50 0
6 -7 24 -15 39 -13 25 -22 52 -41 127 -2 8 -13 49 -24 90 -11 41 -22 91 -25
110 -2 19 -7 46 -10 60 -10 47 -25 125 -31 170 -3 25 -7 54 -9 65 -2 11 -4 29
-5 40 -1 15 -4 12 -11 -10 -8 -26 -6 -143 4 -185 2 -8 7 -33 12 -55 11 -55 14
-72 20 -95 12 -47 16 -66 21 -89 3 -14 7 -28 10 -33 3 -4 7 -16 9 -25 2 -10
10 -37 19 -60 8 -24 13 -43 10 -43 -3 0 -2 -6 3 -12 4 -7 8 -15 9 -18 0 -3 6
-18 12 -33 7 -16 12 -36 12 -46 0 -10 3 -21 8 -25 4 -4 7 -11 8 -14 0 -4 6
-20 12 -35 7 -16 12 -32 12 -36 0 -10 38 -97 80 -186 15 -33 40 -87 55 -120
45 -101 100 -210 108 -213 4 -2 7 -10 7 -18 0 -8 5 -14 10 -14 6 0 10 -7 10
-15 0 -8 5 -15 10 -15 6 0 10 -7 10 -15 0 -8 5 -15 10 -15 6 0 10 -7 10 -15 0
-8 5 -15 10 -15 6 0 10 -7 10 -15 0 -8 5 -15 10 -15 6 0 10 -7 10 -15 0 -8 5
-15 10 -15 6 0 10 -7 10 -15 0 -8 5 -15 10 -15 6 0 10 -5 10 -11 0 -6 42 -71
93 -145 50 -75 100 -150 111 -167 10 -18 22 -34 27 -35 5 -2 9 -9 9 -16 0 -7
13 -26 30 -42 16 -16 30 -33 30 -37 0 -4 24 -31 53 -60 28 -29 99 -102 157
-162 96 -100 328 -312 409 -375 18 -14 40 -33 49 -43 9 -9 22 -17 29 -17 7 0
13 -4 13 -8 0 -5 17 -18 39 -30 28 -16 40 -30 45 -54 8 -41 78 -186 122 -255
19 -28 34 -54 34 -58 0 -3 7 -13 15 -21 8 -9 15 -24 15 -35 0 -10 0 -22 0 -26
0 -5 -3 -8 -7 -9 -5 0 -21 -3 -38 -7 -16 -4 -39 -9 -50 -12 -11 -2 -38 -9 -60
-14 -22 -6 -55 -13 -74 -16 -19 -3 -37 -8 -41 -10 -3 -2 -27 -7 -52 -10 -39
-5 -55 -2 -105 23 -110 57 -235 105 -324 127 -35 9 -71 18 -79 20 -8 2 -21 4
-28 4 -8 1 -11 8 -8 19 4 12 -2 21 -22 29 -39 18 -98 77 -128 128 -15 27 -55
54 -84 57 -26 3 -29 -6 -16 -60 4 -19 1 -22 -25 -22 -18 0 -29 5 -29 14 0 19
-37 42 -82 50 -20 4 -47 15 -60 25 -19 16 -34 18 -88 14 -63 -5 -66 -5 -78 21
-6 14 -17 26 -23 26 -6 0 -1 8 12 19 l23 18 -89 42 c-91 43 -204 110 -239 142
-11 11 -23 19 -26 19 -4 0 -16 8 -28 17 -11 10 -30 25 -43 33 -12 8 -49 38
-82 65 -32 28 -69 57 -81 65 -11 8 -33 26 -47 40 -14 14 -68 63 -119 110 -107
96 -209 200 -290 291 -30 34 -68 77 -85 95 -16 18 -50 56 -75 84 -25 28 -54
61 -66 73 -41 44 -154 195 -154 206 0 6 -4 11 -10 11 -5 0 -10 6 -10 14 0 8
-3 16 -7 18 -8 3 -66 114 -69 131 -1 4 -3 9 -4 12 -1 3 -3 8 -4 13 -5 22 -30
88 -36 97 -6 8 -61 173 -66 198 -1 4 -2 8 -4 10 -1 1 -4 11 -6 22 -15 70 -3
99 52 127 42 21 60 43 70 88 5 20 -5 64 -13 57 -3 -4 -21 0 -39 8 -19 8 -34
12 -34 10 0 -3 -12 0 -27 6 -16 6 -38 13 -50 15 -45 9 -72 24 -84 46 -7 13
-11 23 -9 23 4 0 -30 105 -39 120 -3 6 -6 15 -7 20 -1 6 -14 40 -28 78 -14 37
-23 67 -20 67 3 0 2 6 -3 13 -4 6 -8 15 -9 20 -1 4 -2 8 -4 10 -1 1 -3 10 -5
20 -2 10 -7 26 -11 35 -4 9 -8 19 -8 22 -9 41 -31 102 -37 106 -5 3 -9 15 -9
28 0 12 -4 26 -9 32 -5 5 -12 23 -15 39 -2 17 -7 41 -11 55 -14 62 -19 160
-20 360 0 187 5 273 20 380 14 97 22 143 29 168 3 9 7 33 10 52 3 19 8 45 11
58 8 34 15 65 21 92 3 14 6 30 7 35 2 6 5 15 9 20 3 6 9 27 12 48 3 21 11 47
16 58 6 10 8 19 5 19 -4 0 -3 6 2 13 4 6 9 20 10 30 5 30 112 319 124 334 6 7
8 13 4 13 -3 0 3 15 14 34 12 18 21 38 21 44 0 12 110 245 119 252 3 3 16 25
28 50 12 25 36 68 53 95 16 28 33 57 37 65 3 8 19 34 35 57 15 23 28 46 28 52
0 6 5 11 10 11 6 0 10 7 10 15 0 8 5 15 10 15 6 0 10 5 10 10 0 6 9 20 20 32
11 12 20 28 20 35 0 7 5 13 10 13 6 0 10 7 10 15 0 8 5 15 10 15 6 0 14 8 17
18 4 9 11 22 15 27 5 6 36 46 71 91 158 205 320 369 522 529 21 17 44 36 51
43 7 6 16 12 19 12 7 0 78 54 103 77 7 7 17 13 22 13 5 0 15 6 22 14 8 7 27
20 43 29 17 8 44 27 60 41 17 14 36 26 43 26 6 0 12 4 12 9 0 5 21 19 48 31
26 12 50 27 53 32 3 5 14 10 23 12 9 1 15 6 14 12 -2 5 -6 8 -9 7 -4 -1 -17
-4 -30 -6 -38 -7 -143 -43 -177 -61 -18 -9 -32 -14 -32 -12 0 3 -36 -13 -80
-35 -44 -21 -86 -39 -94 -39 -8 0 -16 -3 -18 -7 -1 -5 -19 -16 -38 -25 -19
-10 -44 -24 -55 -30 -11 -7 -51 -33 -90 -57 -38 -24 -72 -47 -75 -50 -3 -4
-22 -17 -42 -30 -21 -12 -38 -27 -38 -32 0 -5 -6 -9 -13 -9 -7 0 -18 -9 -25
-20 -7 -11 -17 -20 -23 -20 -12 0 -137 -105 -190 -158 -19 -21 -48 -49 -65
-63 -48 -43 -223 -232 -276 -300 -70 -90 -124 -155 -135 -164 -19 -16 -103
-134 -103 -145 0 -6 -4 -10 -10 -10 -5 0 -10 -5 -10 -11 0 -9 -42 -72 -60 -89
-3 -3 -9 -12 -15 -21 -36 -56 -76 -116 -85 -126 -5 -7 -10 -16 -10 -22 0 -5
-4 -11 -9 -13 -12 -4 -100 -152 -145 -243 -72 -145 -150 -374 -182 -535 -11
-58 -25 -137 -29 -165 -3 -16 -10 -64 -15 -105 -6 -41 -13 -88 -15 -105 -12
-92 -17 -116 -23 -110 -4 4 -7 10 -8 13 0 4 -6 20 -12 35 -7 16 -12 34 -12 41
0 6 -4 16 -8 22 -5 5 -17 31 -27 58 -17 47 -19 49 -27 25 -6 -13 -12 -32 -14
-41 -2 -10 -6 -26 -8 -35 -26 -108 -69 -294 -72 -318 -3 -16 -7 -41 -9 -55
-27 -173 -24 -393 10 -566 9 -43 18 -95 21 -114 3 -18 14 -56 25 -82 10 -26
16 -48 13 -48 -3 0 -2 -6 3 -12 4 -7 8 -16 9 -20 1 -5 2 -9 4 -10 1 -2 3 -11
5 -21 2 -10 7 -26 11 -35 4 -9 8 -23 10 -30 1 -7 12 -33 23 -58 12 -24 21 -48
21 -54 0 -24 144 -273 166 -288 11 -8 87 -152 80 -152 -2 0 18 -51 46 -112 27
-62 51 -117 52 -123 12 -39 29 -75 38 -75 5 0 6 -5 3 -10 -3 -5 -2 -10 3 -10
5 0 15 -15 23 -32 7 -18 57 -106 111 -196 54 -90 98 -167 98 -172 0 -4 3 -10
8 -12 4 -1 15 -16 24 -33 49 -85 167 -315 162 -315 -2 0 6 -21 17 -47 11 -26
40 -65 67 -89 26 -23 55 -49 65 -58 9 -9 19 -16 22 -16 6 0 73 -62 189 -175
51 -49 129 -124 173 -165 94 -88 106 -106 117 -180 7 -46 28 -80 50 -80 12 -1
35 -7 51 -15 30 -13 30 -13 5 -15 -14 -1 -38 -4 -54 -6 -46 -8 -74 3 -120 49
-90 88 -152 143 -178 160 l-28 17 12 -27 c21 -47 42 -76 77 -108 19 -16 43
-38 52 -49 10 -10 42 -27 71 -37 54 -18 56 -21 103 -119 29 -62 53 -102 74
-124 12 -12 21 -26 21 -31 0 -12 73 -75 88 -75 6 0 12 -4 12 -9 0 -5 18 -16
40 -25 l40 -16 -36 -47 c-19 -27 -41 -55 -47 -63 -7 -8 -25 -43 -42 -77 l-30
-62 -56 1 -57 1 -5 44 c-4 39 -34 83 -57 83 -4 0 -12 10 -17 23 -10 22 -7 26
63 60 72 36 74 38 74 73 0 47 -27 91 -63 104 -44 15 -44 15 -43 -47 0 -40 -5
-68 -18 -89 -17 -29 -23 -32 -60 -27 -22 2 -44 7 -48 9 -4 3 -8 27 -8 54 0 34
-4 50 -16 54 -8 3 -13 10 -10 14 7 12 -18 45 -35 48 -30 4 -54 6 -65 5 -14 -1
-6 -51 8 -51 5 0 6 -4 3 -10 -3 -5 -1 -10 5 -10 6 0 8 -4 5 -10 -3 -5 -1 -10
6 -10 7 0 10 -3 7 -6 -4 -3 0 -20 7 -37 27 -66 -8 -96 -119 -104 -79 -6 -71
-12 -113 84 -36 86 -47 109 -54 125 -6 12 -1 19 20 28 16 6 41 25 57 41 25 26
26 31 14 54 -7 14 -18 25 -24 25 -6 0 -20 15 -32 33 l-21 32 24 69 c28 84 29
133 3 166 -10 14 -20 23 -22 20 -2 -3 -16 -20 -31 -38 -24 -30 -26 -39 -22
-102 2 -41 0 -70 -5 -70 -6 0 -10 -5 -10 -10 0 -6 -7 -22 -16 -36 -13 -19 -20
-22 -30 -13 -23 19 -28 78 -10 117 18 37 12 50 -26 53 -10 1 -22 3 -28 4 -5 1
-14 3 -19 4 -19 2 -34 63 -28 116 3 30 3 55 1 55 -3 0 -22 -9 -43 -20 -21 -10
-41 -17 -43 -14 -3 2 -10 -2 -17 -10 -9 -10 -9 -20 0 -42 7 -16 13 -31 14 -34
5 -14 26 -64 31 -71 7 -11 -46 9 -65 24 -8 7 -20 27 -28 45 -15 35 -43 44 -43
12 0 -11 -10 -28 -22 -38 -79 -62 -154 -162 -129 -170 6 -2 11 -10 11 -18 0
-8 3 -13 8 -12 4 0 18 -3 31 -9 23 -9 22 -11 -32 -46 -31 -21 -59 -42 -63 -48
-8 -14 -48 32 -74 87 -13 29 -19 61 -18 105 1 86 -5 101 -53 124 -39 19 -48
30 -79 97 -19 41 5 70 84 102 71 28 91 32 81 16 -9 -15 51 -12 63 3 13 15 -23
60 -72 92 -26 17 -27 21 -21 79 3 33 8 71 12 84 6 27 -9 42 -44 42 -23 0 -44
-30 -56 -80 -5 -21 -12 -25 -47 -26 -42 -1 -49 6 -27 28 37 36 41 66 20 118
-10 22 -8 27 18 39 24 12 49 54 49 81 0 4 -61 5 -135 3 l-134 -4 20 50 c18 42
29 54 75 78 30 15 54 31 54 36 0 4 6 7 14 7 8 0 24 14 36 30 12 17 18 30 14
30 -3 0 -2 6 3 13 9 11 20 52 29 112 2 11 5 55 7 98 4 60 10 85 28 112 13 19
30 35 37 35 7 0 10 5 6 11 -3 6 -19 9 -35 7 -27 -4 -28 -3 -34 51 -9 85 -58
180 -62 122 -1 -11 -15 -44 -31 -73 l-30 -53 -68 0 -69 0 2 37 c3 45 57 130
78 121 9 -3 15 1 15 11 0 24 38 39 84 32 98 -14 96 -14 102 10 6 24 2 66 -6
63 -3 -1 -33 13 -66 31 -63 33 -89 34 -118 5 -19 -20 -58 -27 -76 -14 -11 8
-12 12 -3 16 22 8 -4 41 -58 74 -59 37 -59 37 -34 107 25 70 29 112 11 112
-24 0 -85 35 -143 83 -54 44 -62 63 -78 177 -4 25 -13 55 -21 67 -14 22 -15
22 -46 5 -57 -31 -79 -51 -278 -259 -47 -49 -116 -111 -155 -138 -38 -27 -72
-52 -75 -55 -12 -15 -121 -60 -162 -67 -27 -4 -28 -2 -28 34 0 34 5 43 40 69
22 16 40 32 40 36 0 11 77 48 84 41 3 -4 6 7 6 23 0 17 -10 38 -24 51 -23 22
-43 69 -25 58 23 -15 158 103 222 195 22 32 21 39 -3 33 -11 -3 -20 -9 -20
-14 0 -13 -50 -36 -96 -43 -38 -7 -42 -5 -53 21 -6 15 -14 46 -16 67 -3 22 -7
42 -10 44 -4 4 -102 -63 -115 -78 -8 -9 -77 -50 -84 -50 -4 0 -5 21 -3 48 5
43 13 87 17 87 1 0 3 9 5 21 3 11 18 52 35 89 28 63 33 97 13 94 -33 -5 -53 3
-53 22 0 20 -22 50 -37 49 -4 0 -16 3 -25 6 -15 4 -16 8 -5 26 7 12 25 33 40
47 52 47 81 81 83 99 4 21 51 60 84 69 57 14 132 83 157 144 13 35 123 147
199 204 14 11 35 28 45 38 11 9 21 17 24 17 4 0 13 7 65 50 9 8 37 31 60 50
24 19 60 51 80 70 20 19 55 50 78 69 28 22 42 42 42 57 0 20 -3 23 -18 15 -9
-5 -35 -17 -58 -26 -22 -9 -52 -26 -66 -38 -15 -12 -36 -29 -48 -37 -12 -8
-39 -30 -59 -48 -20 -18 -55 -46 -78 -63 -24 -16 -43 -34 -43 -39 0 -6 -6 -10
-13 -10 -7 0 -26 -14 -43 -31 -16 -17 -41 -37 -56 -45 -14 -7 -32 -19 -40 -26
-31 -31 -178 -98 -178 -83 0 18 35 84 74 137 52 73 137 152 204 189 40 23 48
32 52 65 4 33 10 39 45 51 22 8 54 16 70 19 104 17 129 26 161 58 18 17 51 47
73 66 22 19 40 40 41 46 0 6 -23 12 -52 13 -29 1 -65 3 -80 5 -16 2 -28 -1
-28 -7 0 -20 -86 -92 -150 -126 -36 -19 -79 -45 -97 -58 -17 -14 -33 -23 -35
-21 -10 9 -99 -83 -178 -184 -48 -62 -135 -136 -178 -154 -15 -6 -38 -15 -52
-21 -31 -13 -37 2 -21 50 10 29 100 137 114 137 3 0 25 12 49 28 73 46 82 52
103 61 12 5 27 16 34 25 7 9 19 16 26 16 12 0 45 31 104 99 17 19 41 39 53 45
20 10 23 20 26 73 l3 61 29 -8 c16 -4 46 -4 67 0 21 5 39 9 41 9 21 3 62 36
62 51 0 11 3 20 8 21 30 3 45 11 66 36 13 15 36 42 51 58 28 32 57 91 69 140
20 87 91 161 202 211 72 32 139 119 160 207 10 40 13 58 20 104 3 26 8 57 10
68 4 18 6 48 19 235 4 58 10 101 15 108 3 2 7 18 9 31 0 4 11 20 24 34 12 14
31 37 42 51 25 32 80 60 101 52 10 -4 40 -9 68 -12 28 -2 61 -7 73 -9 32 -7
53 4 53 29 0 19 -36 56 -57 59 -43 4 -104 20 -133 34 -38 18 -111 98 -117 129
-8 35 -4 98 8 126 11 26 15 28 69 28 56 0 58 -1 75 -35 9 -20 17 -45 18 -56 2
-27 31 -20 35 9 2 12 11 22 20 23 64 3 87 23 69 59 -21 38 -41 74 -47 80 -10
10 -51 86 -67 123 -9 20 -20 37 -25 37 -4 0 -8 5 -8 11 0 6 -9 22 -20 36 -38
49 -21 60 20 13 21 -25 46 -53 55 -62 8 -10 15 -22 15 -28 0 -5 5 -10 10 -10
6 0 10 -6 10 -14 0 -7 11 -25 25 -40 14 -15 25 -29 25 -33 0 -8 62 -64 67 -60
2 2 4 26 4 53 1 42 -6 61 -51 138 -28 48 -60 96 -71 107 -10 10 -19 24 -19 29
0 6 -4 10 -10 10 -5 0 -10 6 -10 13 0 7 -9 23 -20 35 -11 12 -20 26 -20 32 0
5 -4 10 -9 10 -5 0 -12 11 -15 25 -4 14 -11 25 -16 25 -6 0 -10 6 -10 14 0 8
-6 21 -14 29 -8 7 -26 36 -41 63 -34 64 -47 85 -63 102 -6 7 -12 17 -12 21 0
10 -62 73 -114 116 -29 25 -59 76 -61 107 0 3 -3 9 -6 13 -4 3 -5 14 -2 24 3
14 14 17 55 15 l50 -2 24 -66 c12 -36 20 -66 17 -66 -3 0 -1 -6 5 -12 6 -7 11
-16 12 -20 2 -16 46 -105 58 -118 37 -44 55 -68 70 -92 12 -21 21 -26 39 -22
13 4 47 -2 76 -11 54 -18 74 -23 95 -24 7 -1 12 -15 12 -36 0 -19 4 -35 9 -35
5 0 22 -5 38 -12 31 -12 53 -18 53 -13 0 2 -25 39 -55 83 -30 44 -55 85 -55
91 0 6 -4 11 -10 11 -5 0 -10 7 -10 15 0 8 -4 15 -10 15 -5 0 -10 5 -10 11 0
12 -60 103 -72 107 -4 2 -8 8 -8 13 0 12 -52 93 -62 97 -5 2 -8 10 -8 18 0 8
-4 14 -10 14 -5 0 -10 7 -10 15 0 8 -4 15 -10 15 -5 0 -10 4 -10 10 0 9 -77
131 -100 157 -5 7 -10 17 -10 23 0 5 -5 10 -11 10 -5 0 -8 4 -5 8 3 5 -3 18
-13 29 -10 11 -47 63 -81 116 -35 53 -67 97 -72 97 -4 0 -8 6 -8 13 0 7 -25
35 -56 62 -127 114 -141 130 -150 181 l-5 25 38 -21 c77 -41 105 -66 152 -132
16 -24 40 -56 53 -71 l23 -28 57 19 56 19 19 -41 c10 -22 36 -62 58 -88 22
-25 47 -57 57 -70 l16 -23 11 28 c27 68 12 115 -72 232 -26 36 -47 70 -47 75
0 6 -4 10 -10 10 -5 0 -10 6 -10 14 0 8 -6 21 -14 28 -15 16 -40 63 -50 95 -7
22 -6 22 20 8 15 -7 30 -17 33 -22 3 -4 23 -21 44 -37 l38 -28 -6 35 c-6 33
-5 34 18 30 36 -7 137 -110 137 -139 0 -7 9 -16 20 -19 11 -3 20 -10 20 -14 0
-5 27 -20 59 -35 57 -25 164 -119 201 -176 8 -13 24 -33 35 -46 11 -12 31 -37
45 -55 14 -18 35 -43 47 -56 13 -13 23 -26 23 -28 0 -4 10 -16 75 -86 17 -18
54 -61 83 -97 28 -35 52 -61 52 -58 0 3 22 -17 50 -44 46 -46 121 -82 136 -67
8 7 -67 157 -78 157 -4 0 -8 6 -8 14 0 8 -3 16 -8 18 -4 2 -25 26 -47 53 -36
46 -61 75 -129 147 -14 15 -26 31 -26 35 0 5 -11 20 -25 35 -14 15 -25 32 -25
38 0 5 -3 10 -8 10 -4 0 -13 14 -20 30 -8 17 -35 51 -60 78 -26 26 -65 70 -87
97 -22 28 -48 59 -57 69 -10 11 -30 38 -45 60 -15 23 -46 59 -68 81 -23 22
-63 69 -90 105 -28 36 -55 70 -62 77 -13 15 -27 72 -19 80 3 3 27 -10 53 -29
43 -31 100 -59 128 -64 47 -9 77 -32 82 -67 6 -34 34 -64 82 -87 32 -14 56
-20 68 -15 24 10 61 12 75 4 6 -4 12 -24 14 -45 5 -51 8 -62 26 -104 18 -41
107 -140 126 -140 6 0 12 -4 12 -9 0 -5 8 -12 18 -16 16 -5 71 -57 170 -162
12 -13 22 -28 22 -33 0 -6 4 -10 10 -10 5 0 16 -13 24 -28 8 -16 26 -40 40
-53 14 -13 26 -29 26 -35 0 -6 15 -25 33 -42 17 -17 46 -47 62 -68 72 -90 93
-105 124 -85 10 7 12 24 8 66 -3 32 -9 61 -14 64 -5 3 -12 13 -15 22 -4 9 -37
33 -75 54 -37 20 -70 39 -72 41 -8 8 31 42 62 55 42 17 94 74 103 113 9 38 10
48 12 114 l2 52 35 0 c19 0 63 15 102 35 37 19 86 37 108 41 22 3 51 8 65 10
119 22 237 25 340 8 8 -1 35 -5 60 -9 25 -4 52 -11 61 -16 9 -4 31 -11 50 -14
19 -3 42 -8 51 -11 9 -3 26 -7 37 -9 12 -3 30 -7 41 -10 11 -3 30 -7 43 -10
12 -2 35 -7 50 -11 27 -6 28 -4 22 17 -13 45 -69 69 -162 69 -44 0 -53 3 -53
18 0 10 -4 22 -9 27 -9 10 -27 63 -37 106 -3 13 -6 29 -8 34 -1 6 -8 30 -15
55 -7 25 -13 50 -15 55 -2 6 -3 12 -2 15 0 3 -7 18 -17 33 -9 15 -14 27 -10
27 5 0 3 4 -3 8 -27 19 -52 79 -49 120 3 48 24 71 67 72 29 0 104 -65 126
-110 7 -14 22 -42 35 -62 52 -87 69 -123 73 -157 12 -102 26 -142 61 -176 19
-18 55 -40 79 -49 l44 -15 -5 47 c-6 62 -23 148 -33 170 -7 16 -8 36 -2 55 1
4 3 10 4 15 1 4 6 15 12 25 9 16 15 13 52 -28 23 -26 42 -49 42 -53 0 -17 37
-37 64 -34 16 2 49 16 75 32 48 30 61 27 61 -17 0 -12 5 -33 12 -47 10 -22 16
-25 50 -22 31 3 43 9 54 32 8 16 16 30 18 31 8 8 74 -24 95 -45 20 -22 22 -32
17 -72 -6 -46 -5 -48 46 -102 56 -59 94 -84 118 -79 20 4 36 26 69 96 16 33
38 69 48 80 10 11 17 19 16 17 -1 -2 6 -20 14 -40 8 -20 14 -39 12 -42 -1 -3
4 -6 13 -8 8 -2 29 9 46 23 16 14 35 25 41 25 6 0 11 4 11 9 0 5 9 12 20 16
16 5 19 14 17 46 -2 35 -5 39 -29 39 -19 0 -26 5 -24 17 3 21 34 33 61 23 33
-11 55 -1 55 26 0 18 -5 24 -21 24 -18 0 -20 4 -14 30 4 19 3 30 -4 30 -6 0
-11 -4 -11 -8 0 -16 -44 -29 -105 -31 -65 -3 -66 -3 -68 -23 -4 -24 -30 -79
-36 -76 -3 2 -37 18 -75 37 -55 28 -72 32 -86 23 -13 -8 -26 -8 -49 1 -39 14
-39 22 -2 42 16 8 32 24 36 35 3 11 10 20 14 20 4 0 21 25 37 56 34 64 39 69
79 77 26 5 32 1 46 -26 8 -17 21 -33 28 -35 8 -3 11 0 8 6 -4 5 3 22 15 37
l22 28 -37 -7 c-33 -6 -37 -4 -52 24 -8 16 -19 30 -24 30 -5 0 4 14 20 31 15
16 36 30 46 30 35 -1 162 -17 166 -21 18 -22 67 -100 62 -100 -3 0 1 -10 9
-22 7 -13 12 -32 10 -43 -4 -25 12 -35 59 -35 30 0 37 -4 38 -20 2 -36 4 -40
14 -40 6 -1 13 13 16 30 7 31 23 55 37 55 4 0 32 13 63 27 31 15 67 29 80 32
58 12 68 15 88 28 25 15 28 59 6 81 -12 13 -12 16 8 22 12 4 24 8 27 9 37 17
64 26 98 35 50 14 139 90 120 103 -9 5 -10 10 -2 16 6 4 10 18 10 32 0 43 13
55 35 31 10 -11 19 -27 19 -35z m-547 37 c-7 -2 -13 -11 -13 -18 0 -11 -39
-50 -109 -107 -12 -10 -26 -18 -31 -18 -6 0 -13 -7 -16 -15 -4 -8 -12 -15 -20
-15 -8 0 -14 -4 -14 -10 0 -5 -7 -10 -15 -10 -8 0 -15 -5 -15 -12 0 -8 -3 -9
-10 -2 -14 14 17 95 49 124 26 23 94 63 113 66 4 1 9 2 11 3 1 2 13 5 26 7 14
2 27 7 30 9 2 3 9 5 15 4 6 0 5 -3 -1 -6z m245 -85 c3 -28 2 -28 -98 -19 -10
1 -6 10 15 29 38 36 78 31 83 -10z m-2348 -63 c0 -19 -45 -65 -55 -57 -6 4
-20 21 -32 37 l-21 30 54 0 c30 0 54 -4 54 -10z m2150 -11 c0 -20 4 -25 16
-20 9 3 34 1 55 -5 32 -10 41 -18 49 -48 14 -52 13 -61 -12 -62 -13 0 -39 -3
-58 -6 -39 -6 -57 -7 -117 -3 -51 4 -51 11 1 133 13 28 22 37 41 37 20 0 25
-5 25 -26z m1432 -63 c50 -32 61 -45 65 -78 2 -13 -1 -20 -9 -19 -7 2 -32 7
-56 11 -48 9 -65 30 -67 83 -1 39 9 40 67 3z m324 11 c-3 -2 2 -19 11 -36 22
-39 22 -50 3 -57 -18 -7 -31 5 -53 50 -23 46 -22 50 13 49 17 -1 28 -3 26 -6z
m1183 -71 c-1 -45 -8 -93 -16 -109 -35 -73 -107 -35 -112 57 -2 45 2 54 29 81
17 16 34 30 38 31 22 2 45 8 50 13 12 12 13 4 11 -73z m-3614 47 c17 -10 37
-21 46 -24 15 -5 12 -15 -18 -75 -39 -79 -49 -88 -59 -57 -11 35 -33 47 -68
36 -80 -24 -100 -26 -177 -14 -46 7 -47 7 -37 34 6 16 19 29 28 29 29 2 120
45 120 56 0 6 3 7 6 4 4 -3 18 3 32 14 31 24 83 23 127 -3z m1749 -34 c7 -18
-5 -44 -30 -65 -14 -12 -19 -10 -40 16 -16 20 -20 34 -14 45 12 22 76 25 84 4z
m211 -59 c9 -25 17 -48 18 -52 1 -15 25 -32 48 -37 21 -4 40 -9 84 -20 39 -9
75 -40 85 -71 7 -20 10 -38 8 -41 -3 -2 -30 4 -61 15 -31 10 -59 16 -62 13 -3
-3 -5 -27 -5 -54 l0 -48 -50 0 c-36 0 -50 -4 -50 -14 0 -14 -71 -66 -90 -66
-5 0 -10 -4 -10 -10 0 -5 -7 -10 -15 -10 -9 0 -35 -9 -57 -20 -23 -11 -44 -20
-46 -20 -2 0 8 20 22 45 22 36 25 49 16 65 -6 11 -14 20 -18 20 -9 1 -96 80
-91 83 43 26 89 46 89 38 0 -18 44 -41 68 -34 27 7 29 27 4 45 -32 23 -72 84
-72 110 0 30 47 75 97 92 61 21 69 18 88 -29z m305 -45 c8 0 22 -18 31 -39
l17 -39 -31 9 c-17 5 -33 7 -35 4 -13 -13 -28 18 -24 50 3 26 7 34 15 26 6 -6
18 -11 27 -11z m-2766 -71 c-15 -16 -31 -26 -35 -23 -4 2 -10 0 -14 -6 -11
-18 -25 -11 -25 12 0 13 12 35 28 49 25 24 29 25 50 11 l23 -15 -27 -28z
m-1514 -45 l0 -34 -51 0 c-38 0 -55 5 -65 18 -21 27 -17 45 18 73 l32 27 33
-25 c26 -20 33 -33 33 -59z m4846 20 c1 -72 -10 -87 -71 -97 -16 -3 -39 -8
-49 -13 -20 -8 -20 -11 -1 86 6 33 32 56 80 73 22 8 40 15 40 16 0 0 1 -29 1
-65z m619 -24 c1 -24 -36 -60 -62 -60 -21 0 -22 2 -11 28 7 15 17 32 23 37 6
6 15 19 19 30 l7 20 12 -20 c6 -11 12 -27 12 -35z m-3585 20 c0 -21 -21 -50
-37 -52 -13 -1 -36 -9 -63 -20 -52 -23 -59 -21 -56 17 1 19 4 36 7 39 18 16
65 31 104 34 40 2 45 1 45 -18z m3786 -57 l36 -37 -33 -27 c-19 -15 -35 -26
-37 -24 -2 2 -17 -1 -34 -5 l-30 -9 6 37 c8 60 27 102 47 102 5 0 25 -17 45
-37z m-2526 -49 c0 2 21 -4 47 -13 58 -21 65 -42 25 -79 -29 -27 -82 -41 -82
-22 0 19 -2 25 -10 35 -5 6 -11 30 -14 53 -5 39 -4 41 15 32 10 -6 19 -9 19
-6z m-3125 -74 c-3 -5 -1 -11 5 -15 13 -8 13 -115 0 -115 -6 0 -26 10 -45 23
-44 28 -46 59 -4 98 27 26 58 32 44 9z m2036 -73 c-10 -9 -17 -7 -32 12 -25
30 -24 40 4 50 19 7 23 5 31 -21 6 -20 5 -32 -3 -41z m-1114 -12 c-18 -17 -41
-34 -53 -37 -18 -4 -20 -1 -16 26 7 46 35 67 72 53 l28 -11 -31 -31z m5013
-15 c-13 -44 -19 -50 -51 -50 -27 0 -30 3 -23 23 10 33 30 52 58 55 23 1 24
-1 16 -28z m-5762 -26 c19 -20 22 -73 4 -90 -10 -11 -30 -14 -66 -12 l-51 3
-1 48 c-1 37 4 53 23 73 23 25 24 26 51 8 15 -10 33 -23 40 -30z m3706 -29 c6
-16 -28 -29 -60 -23 -27 5 -28 26 -2 31 44 8 56 7 62 -8z m1946 -35 c3 -3 28
-7 55 -9 28 -2 52 -4 54 -7 2 -2 -2 -24 -9 -49 -11 -40 -11 -48 5 -65 10 -11
21 -17 26 -15 4 3 10 1 14 -5 4 -6 11 -8 16 -5 20 13 8 -15 -18 -41 -45 -45
-98 -63 -170 -57 -58 5 -63 4 -63 -15 0 -11 -10 -41 -22 -68 -12 -27 -23 -58
-24 -69 -4 -25 -12 -59 -14 -62 -2 -2 -3 -6 -4 -11 0 -4 -10 -20 -21 -35 -21
-29 -40 -36 -119 -44 -53 -6 -52 -10 -23 74 10 31 42 53 76 53 34 0 53 25 58
76 9 99 7 124 -9 124 -7 0 -26 11 -41 24 -29 25 -41 72 -30 115 5 19 6 19 44
-6 41 -27 68 -26 67 4 -3 75 33 113 101 105 25 -3 48 -8 51 -12z m-1040 -5
c-7 -8 -9 -15 -6 -15 4 0 2 -9 -4 -20 -13 -25 -66 -29 -56 -4 3 9 6 22 6 29 0
14 18 22 54 24 15 1 16 -2 6 -14z m-4823 -57 c13 -14 18 -41 20 -104 1 -46 5
-89 8 -94 9 -15 -27 1 -49 22 -11 10 -23 18 -26 18 -4 0 -13 18 -20 40 -12 37
-6 83 16 131 6 12 35 5 51 -13z m-1601 -84 c19 -9 40 -26 47 -38 16 -29 37
-89 32 -94 -2 -2 -21 4 -42 13 -42 18 -81 66 -89 109 -5 31 5 32 52 10z m5352
-108 c0 -17 -5 -23 -14 -19 -17 6 -18 30 -1 36 6 3 13 6 13 6 1 1 2 -10 2 -23z
m287 -106 c15 0 71 -48 64 -54 -2 -2 -25 3 -51 10 -33 10 -46 19 -42 28 3 8 1
17 -5 21 -6 3 -11 11 -11 16 0 6 7 3 16 -5 8 -9 22 -16 29 -16z m1967 -24 c14
-10 10 -16 -34 -40 -47 -27 -49 -27 -38 -6 6 12 9 28 6 35 -8 23 37 30 66 11z
m1019 -151 c24 -41 24 -41 -23 -37 -65 6 -83 26 -52 57 23 23 55 15 75 -20z
m-4824 -288 c9 -10 -38 -7 -62 3 -15 7 -11 8 17 6 21 -1 41 -6 45 -9z m113
-82 c13 -14 20 -25 13 -25 -6 0 -16 7 -23 15 -7 8 -19 15 -26 15 -8 0 -14 5
-14 10 0 6 -6 10 -14 10 -7 0 -20 7 -27 16 -21 26 60 -11 91 -41z m-3858 16
c20 -7 29 -19 34 -45 7 -38 -1 -71 -14 -62 -5 3 -21 7 -37 10 -35 7 -77 36
-81 56 -1 8 -5 22 -9 32 -11 28 45 33 107 9z m-289 -42 c17 -24 42 -66 43 -74
1 -5 5 -18 9 -29 7 -17 4 -18 -41 -12 -63 9 -126 52 -130 89 -1 15 1 25 5 23
4 -3 13 -1 21 4 13 8 87 7 93 -1z m6837 -90 c0 -6 -4 -7 -10 -4 -5 3 -10 11
-10 16 0 6 5 7 10 4 6 -3 10 -11 10 -16z m1438 -184 c-14 -29 -29 -45 -40 -45
-27 0 -22 24 14 59 44 43 52 39 26 -14z m-1208 -28 c0 -15 -23 -1 -39 23 l-16
24 27 -19 c15 -11 28 -24 28 -28z m-7356 -129 l41 -41 -32 -9 c-18 -5 -33 -12
-33 -17 0 -9 -25 -11 -60 -5 -25 5 -91 55 -92 71 0 12 73 41 106 42 21 1 40
-10 70 -41z m8359 -70 c2 -18 4 -34 3 -35 0 0 -14 -2 -31 -4 -16 -2 -36 -7
-43 -13 -10 -7 -11 -4 -4 15 5 13 7 30 5 37 -4 11 27 30 53 31 7 1 14 -14 17
-31z m-8473 -153 c17 -9 39 -33 50 -55 22 -43 26 -65 10 -55 -5 3 -10 2 -10
-3 0 -15 -74 -34 -110 -28 -108 18 -130 29 -130 67 0 32 35 61 90 77 50 15 67
14 100 -3z m5654 -27 c22 -15 34 -28 27 -28 -11 0 -101 59 -101 66 0 8 39 -12
74 -38z m157 -100 c13 -18 36 -44 53 -58 39 -33 76 -70 76 -76 0 -22 -155 117
-163 146 -8 30 9 24 34 -12z m-4990 -100 c1 4 5 -11 9 -33 4 -22 7 -41 5 -43
-1 -1 -19 5 -39 13 -29 13 -35 19 -27 29 6 8 9 21 5 30 -5 14 -3 15 20 6 14
-5 27 -6 27 -2z m5299 -223 c11 -13 10 -14 -4 -9 -9 3 -16 10 -16 15 0 13 6
11 20 -6z m60 -67 c0 -6 -6 -5 -15 2 -8 7 -15 14 -15 16 0 2 7 1 15 -2 8 -4
15 -11 15 -16z m25 -28 c3 -5 1 -10 -4 -10 -6 0 -11 5 -11 10 0 6 2 10 4 10 3
0 8 -4 11 -10z m-6696 -151 c26 -9 31 -16 31 -45 0 -31 -2 -33 -24 -24 -13 5
-27 6 -30 3 -3 -4 -6 5 -6 20 0 14 -3 32 -6 41 -7 19 -6 19 35 5z m949 -455
c-32 -18 -34 -18 -33 14 0 37 16 46 38 20 18 -21 18 -22 -5 -34z m-425 -20 c4
-21 2 -23 -12 -12 -47 37 -51 47 -17 41 16 -3 26 -13 29 -29z m751 -36 c33
-29 34 -29 -35 -13 -27 5 -25 3 -32 42 -6 32 -6 32 15 15 11 -9 35 -29 52 -44z
m-230 -34 c12 -32 7 -62 -11 -60 -23 4 -32 76 -10 76 8 0 18 -7 21 -16z m127
-39 c4 -21 -7 -45 -20 -45 -18 0 -31 50 -19 75 10 23 12 24 24 7 6 -10 13 -26
15 -37z m-506 -209 c19 -8 35 -19 35 -25 0 -5 8 -12 19 -16 13 -4 17 -12 14
-28 -4 -21 -9 -23 -44 -18 -35 5 -42 11 -59 48 -25 56 -19 61 35 39z m-435
-79 c0 -4 4 -6 9 -3 4 3 17 -1 27 -9 17 -12 17 -15 4 -29 -8 -9 -29 -18 -47
-22 -26 -5 -32 -3 -38 15 -10 31 3 60 25 58 11 -1 20 -5 20 -10z m630 -17 c20
-28 28 -49 34 -97 5 -38 -21 -50 -95 -44 -7 1 -9 13 -6 34 5 33 14 70 17 75 2
1 3 5 4 10 5 19 18 52 21 52 2 0 13 -13 25 -30z m-530 -133 c0 -13 6 -29 13
-36 10 -10 6 -10 -18 -1 -61 23 -77 60 -25 60 25 0 30 -4 30 -23z m10025 -90
c11 -11 10 -15 -6 -25 -26 -17 -42 -15 -61 7 -16 18 -16 20 0 24 33 9 54 7 67
-6z m-304 -349 c-5 -13 -9 -27 -10 -33 -1 -5 -18 -16 -38 -22 l-36 -13 6 37
c7 41 20 53 59 53 24 0 27 -3 19 -22z m116 -715 c-2 -14 1 -27 10 -31 8 -5 11
-15 7 -25 -8 -21 -24 -22 -24 -1 0 9 -9 18 -20 21 -23 6 -25 16 -9 41 17 28
42 24 36 -5z m-242 -258 c33 -32 32 -47 -2 -41 -28 6 -56 26 -35 26 10 0 10 5
2 20 -15 29 5 26 35 -5z m348 -299 c23 -18 13 -41 -24 -56 -51 -22 -81 23 -37
54 27 19 38 19 61 2z m-9133 -302 c0 -29 -3 -35 -16 -30 -9 3 -19 6 -23 6 -4
0 -17 14 -29 30 l-23 30 46 0 45 0 0 -36z m-1022 -308 c-3 -36 -27 -45 -52
-20 -16 15 -16 18 5 40 28 30 51 21 47 -20z m10091 -36 c19 0 12 -17 -14 -34
-23 -15 -27 -15 -40 -2 -8 8 -15 29 -15 46 l0 31 29 -20 c16 -12 34 -21 40
-21z m-319 -41 c0 -4 -17 -9 -37 -11 -21 -2 -39 -9 -39 -15 -1 -7 -2 -19 -3
-27 -2 -25 -44 -13 -52 16 -8 32 -4 38 29 38 21 0 24 4 20 30 -6 42 29 46 60
6 12 -17 22 -33 22 -37z m-348 -7 c23 -10 26 -16 26 -62 1 -48 0 -51 -21 -44
-12 3 -29 13 -38 20 -29 26 -46 17 -52 -27 -3 -22 -18 -59 -33 -82 l-27 -41
-18 22 c-13 17 -17 35 -14 75 5 57 21 77 67 77 32 0 48 22 48 64 0 16 17 15
62 -2z m434 -89 c-3 -3 -1 -13 4 -22 5 -10 5 -22 1 -29 -11 -18 -39 7 -50 45
l-9 31 29 -10 c17 -6 28 -13 25 -15z m-9701 -13 c7 -23 -2 -60 -15 -60 -11 0
-40 29 -40 40 0 11 29 40 40 40 5 0 12 -9 15 -20z m10195 -22 c1 -21 -43 4
-46 26 -2 13 1 13 22 -2 13 -9 24 -20 24 -24z m-749 5 c4 -5 10 -26 13 -48 3
-22 3 -34 0 -27 -3 6 -10 12 -15 12 -23 0 -65 60 -52 73 6 7 44 0 54 -10z
m-5831 -50 c12 -20 16 -32 8 -26 -17 15 -54 78 -40 70 5 -4 20 -24 32 -44z
m6448 -18 c1 -1 7 -17 12 -34 l9 -32 -32 18 c-18 11 -33 29 -35 42 -3 20 -1
22 20 16 13 -4 24 -9 26 -10z m-405 -14 c4 0 11 -1 16 -1 14 0 47 -59 59 -103
l11 -38 -37 22 c-52 31 -58 38 -81 91 l-20 47 22 -8 c12 -5 25 -9 30 -10z
m137 -33 c25 -42 25 -51 0 -38 -11 6 -20 7 -20 3 0 -4 -7 2 -15 14 -15 21 -11
53 6 53 5 0 18 -15 29 -32z m-6136 6 c10 -25 -1 -29 -14 -5 -6 12 -7 21 -1 21
5 0 12 -7 15 -16z m26 -44 c0 -5 -2 -10 -4 -10 -3 0 -8 5 -11 10 -3 6 -1 10 4
10 6 0 11 -4 11 -10z m5450 -47 c20 -24 43 -73 47 -102 2 -14 8 -32 14 -42 14
-27 11 -31 -22 -25 -39 6 -82 64 -95 129 -2 12 -7 37 -10 55 l-7 34 29 -15
c16 -9 36 -24 44 -34z m-124 -45 c-4 -21 -15 -47 -26 -58 -11 -11 -20 -24 -20
-30 0 -5 -18 -10 -39 -10 -36 0 -40 3 -46 33 -4 17 -11 37 -15 42 -25 31 24
61 98 61 l54 0 -6 -38z m294 -78 c19 -45 8 -54 -26 -23 -25 22 -29 31 -21 44
14 22 33 14 47 -21z m-8190 -1 c-3 -2 5 -20 18 -40 12 -20 20 -43 17 -51 -7
-17 -50 -36 -100 -43 -90 -12 -114 -24 -135 -66 -29 -55 -24 -118 15 -211 8
-20 -9 -19 -64 5 -33 14 -58 10 -81 -13 -3 -3 -21 -17 -40 -31 l-36 -27 -78
73 -77 72 35 21 c20 12 36 28 36 36 0 8 -21 27 -47 42 -27 15 -50 29 -52 31
-14 10 21 17 106 19 75 3 106 -1 131 -13 l33 -16 72 74 c40 42 90 83 112 93
22 9 56 25 75 35 30 15 75 23 60 10z m2885 -199 c2 -11 0 -20 -4 -20 -11 0
-42 36 -36 42 3 3 -24 34 -60 70 -36 36 -65 71 -65 78 0 18 161 -147 165 -170z
m136 -99 c13 -11 21 -23 17 -26 -9 -9 -58 21 -58 35 0 15 15 12 41 -9z m-4429
-46 c-3 -20 -10 -25 -33 -25 -36 0 -36 8 -2 36 33 26 42 23 35 -11z m9461 -23
c34 -9 37 -9 37 9 0 17 3 18 23 8 24 -13 57 -44 57 -55 0 -4 7 -15 15 -24 15
-17 21 -35 32 -93 5 -27 4 -27 -33 -25 -34 3 -39 7 -44 33 -3 17 -10 29 -15
29 -6 -1 -20 2 -33 7 -13 5 -28 9 -33 9 -5 0 -9 5 -9 10 0 6 -7 10 -15 10 -8
0 -15 4 -15 8 0 5 -8 17 -17 28 -10 10 -23 34 -30 51 l-11 33 26 -14 c15 -8
44 -18 65 -24z m-8590 -72 c-12 -30 -22 -40 -39 -40 -13 0 -26 -4 -29 -10 -13
-22 -22 -8 -16 27 6 33 10 37 51 48 25 7 46 13 47 14 1 0 -6 -17 -14 -39z
m217 -296 c0 -38 -3 -44 -20 -44 -12 0 -38 -9 -60 -20 -22 -11 -42 -20 -45
-20 -13 0 4 90 20 106 18 18 72 33 93 26 7 -2 12 -22 12 -48z m8342 16 c12 0
17 -7 17 -22 -1 -13 2 -31 6 -40 5 -14 2 -16 -17 -13 -12 3 -33 10 -45 16 -18
10 -20 15 -12 26 9 10 8 17 -2 30 -13 15 -11 16 11 10 14 -4 33 -7 42 -7z
m428 -9 c5 -11 10 -24 10 -30 0 -16 -33 -13 -56 4 -19 15 -19 15 0 30 26 20
33 19 46 -4z m-8263 -50 c-1 -38 -2 -39 -39 -39 -38 -1 -38 0 -38 39 0 39 0
39 39 39 40 0 40 0 38 -39z m8253 -61 c8 -5 11 -10 6 -10 -5 0 -3 -6 3 -14 10
-12 9 -14 -6 -11 -10 2 -23 4 -30 4 -6 1 -9 10 -6 21 6 22 11 24 33 10z
m-8640 -23 c0 -7 -15 -30 -33 -51 -32 -35 -35 -36 -50 -21 -18 17 -21 42 -11
69 8 21 94 23 94 3z m-162 -79 c-1 -60 -33 -113 -80 -135 -24 -11 -58 -20 -76
-21 -30 -2 -32 -1 -22 18 6 11 8 20 6 20 -3 0 2 19 10 43 17 49 52 84 89 91
15 3 30 8 33 11 3 3 13 5 23 5 13 0 18 -8 17 -32z m8003 -49 c11 -11 18 -27
15 -35 -7 -17 -45 -18 -68 0 -16 11 -16 15 -2 34 19 27 29 27 55 1z m-3581
-113 c25 -16 47 -33 48 -38 2 -4 11 -8 20 -9 10 0 12 -3 5 -6 -12 -4 -91 45
-128 81 -23 22 -8 14 55 -28z m4210 4 c0 -10 3 -25 6 -34 5 -12 0 -14 -23 -10
-15 3 -32 10 -38 15 -15 15 -12 43 5 50 24 9 50 -2 50 -21z m-1044 -14 c22
-14 48 -38 59 -53 11 -15 34 -42 50 -59 17 -18 43 -51 59 -73 17 -23 33 -41
38 -41 4 0 8 -7 8 -15 0 -9 7 -18 15 -21 8 -4 15 -12 15 -19 0 -8 6 -20 13
-27 18 -19 37 -66 37 -92 0 -17 -8 -27 -28 -34 -44 -15 -82 -3 -138 45 -28 23
-54 43 -58 43 -4 0 -26 9 -50 19 -37 18 -48 31 -98 123 -62 114 -73 149 -62
203 l6 36 48 -4 c28 -3 64 -16 86 -31z m820 -34 c6 -4 13 -20 16 -35 5 -27 4
-28 -26 -21 -33 7 -60 24 -37 24 8 0 11 7 8 20 -5 21 16 28 39 12z m-4257 -36
c45 -25 116 -56 136 -62 39 -10 85 -37 85 -49 0 -8 -4 -15 -10 -15 -12 0 -3
-50 22 -115 l19 -50 -48 51 c-26 28 -58 63 -71 79 -17 21 -25 25 -36 16 -7 -6
-25 -12 -40 -13 -22 -2 -26 -7 -27 -33 0 -29 0 -30 -10 -6 -5 14 -11 34 -14
45 -2 12 -4 22 -6 24 -1 1 -2 5 -4 10 -1 4 -7 21 -14 37 -25 58 -40 105 -34
105 3 0 26 -11 52 -24z m409 -21 c10 -9 -33 -5 -48 5 -11 8 -8 9 14 6 16 -3
31 -8 34 -11z m123 -42 c13 -15 12 -15 -11 -3 -34 17 -36 20 -18 20 9 0 22 -7
29 -17z m-1729 -55 c8 -12 5 -57 -6 -103 -2 -11 -5 -23 -5 -26 -1 -4 -21 -6
-45 -5 -24 0 -42 4 -41 7 2 3 6 25 10 50 3 24 7 53 9 64 3 11 5 23 5 27 2 11
64 -1 73 -14z m-3422 -18 c0 -27 -3 -30 -30 -30 -25 0 -30 4 -30 23 0 30 7 37
37 37 19 0 23 -5 23 -30z m5020 -21 c25 -7 48 -13 53 -15 4 -1 24 -2 45 -3
l37 -1 -30 -16 c-16 -9 -37 -17 -45 -19 -8 -2 -28 -8 -43 -14 -26 -10 -31 -8
-67 29 -46 46 -54 75 -17 60 12 -5 42 -15 67 -21z m-3350 -219 c4 0 24 -15 44
-33 48 -42 57 -89 25 -123 -29 -31 -42 -30 -59 4 -8 15 -19 33 -24 41 -11 14
-14 26 -20 84 -3 31 -1 37 11 33 8 -3 18 -6 23 -6z m1082 -160 c-8 -21 -21
-28 -44 -22 -25 6 -50 45 -43 65 6 13 12 12 50 -6 30 -15 41 -26 37 -37z
m-2036 -1 c-8 -32 -14 -38 -42 -41 -29 -3 -32 -2 -28 22 7 38 13 52 22 46 4
-2 14 -1 20 3 30 18 39 9 28 -30z m1408 -2 c-1 -9 -14 -37 -29 -63 l-27 -46
-18 30 c-24 39 -16 65 23 85 37 18 53 16 51 -6z m3363 -7 c6 -8 9 -25 6 -37
-4 -18 -1 -23 13 -23 33 -1 -9 -19 -56 -25 -52 -7 -77 0 -90 26 -14 24 0 39
55 61 46 19 56 18 72 -2z m-2581 -31 c3 -5 12 -9 20 -9 8 0 33 -9 57 -19 46
-22 211 -80 241 -87 10 -2 35 -9 55 -16 20 -7 38 -13 41 -13 41 -8 77 -19 85
-25 10 -8 16 -10 36 -10 6 0 9 -7 5 -15 -3 -8 -1 -15 4 -15 6 0 10 7 10 16 0
9 6 14 13 11 6 -2 10 -11 8 -18 -2 -8 -7 -40 -12 -73 -4 -32 -12 -63 -18 -69
-13 -13 -15 -28 -3 -25 16 3 60 -22 79 -45 20 -26 44 -37 117 -52 34 -7 46
-13 46 -24 0 -4 -46 -39 -102 -76 -57 -38 -105 -71 -108 -74 -3 -3 -26 -16
-52 -28 l-47 -22 -38 42 c-21 23 -62 66 -90 97 -64 67 -94 102 -91 106 2 1 23
5 48 9 54 8 69 19 44 33 -17 9 -57 16 -76 13 -18 -2 -23 6 -23 33 0 29 -1 30
-55 31 -30 0 -60 4 -66 7 -20 13 -108 26 -201 29 -53 2 -53 2 -53 34 0 30 13
43 47 43 9 1 41 73 47 106 3 16 -1 47 -9 70 -8 22 -15 44 -15 47 0 9 49 -2 56
-12z m2427 -80 c33 -93 33 -122 0 -155 -30 -30 -113 -150 -113 -163 0 -4 -13
-17 -29 -28 -23 -18 -42 -22 -102 -21 -41 0 -78 -1 -84 -2 -5 -1 -13 -2 -17
-1 -5 0 -8 -19 -8 -43 0 -35 -6 -49 -26 -67 -14 -13 -35 -32 -45 -41 -10 -10
-23 -18 -29 -18 -5 0 -10 -4 -10 -8 0 -5 -7 -9 -15 -9 -8 0 -13 3 -10 5 3 3
-1 15 -8 26 -8 12 -20 39 -27 61 -7 22 -16 45 -21 50 -4 6 -17 36 -29 68 -12
31 -26 57 -32 57 -6 0 -9 3 -5 6 3 4 -16 38 -44 77 -27 39 -46 74 -42 78 5 4
26 10 48 14 47 8 54 9 80 18 11 3 38 9 60 12 22 4 45 8 50 9 45 12 64 16 88
20 15 3 36 8 47 11 16 5 20 2 20 -15 0 -33 17 -58 53 -77 43 -23 54 -24 68 -7
16 20 42 17 62 -6 9 -11 26 -20 37 -20 17 0 20 7 20 44 0 47 -16 103 -36 126
-17 20 -5 39 32 50 42 12 46 9 67 -51z m-3945 -60 c-8 -28 -16 -38 -35 -42
-25 -5 -32 3 -37 40 -2 12 6 21 28 29 50 17 54 15 44 -27z m892 16 c-15 -18
-4 -33 28 -40 34 -6 42 -14 42 -40 0 -17 8 -26 30 -33 16 -6 45 -22 62 -35 41
-31 136 -77 159 -77 21 0 29 -12 36 -50 4 -28 2 -29 -24 -25 -15 2 -44 6 -63
9 -39 4 -60 13 -140 56 -46 26 -66 30 -127 30 l-73 0 20 53 c11 28 20 53 20
53 0 1 -31 0 -70 -2 -62 -3 -70 -2 -70 14 0 20 44 64 54 55 3 -4 6 0 6 7 0 7
3 11 6 7 3 -3 23 3 42 14 46 24 81 26 62 4z m1388 -100 c34 -5 36 -11 18 -49
-12 -26 -21 -33 -35 -29 -12 3 -26 -3 -38 -17 -10 -12 -26 -31 -35 -42 -10
-12 -18 -25 -18 -30 0 -4 -7 -8 -15 -8 -8 0 -14 3 -13 8 1 4 -5 27 -12 52 -17
56 -15 68 18 103 24 25 32 27 67 22 22 -4 51 -8 63 -10z m754 -15 c14 0 31
-32 43 -80 3 -10 17 -45 32 -78 8 -18 16 -41 18 -51 2 -10 13 -40 26 -67 12
-27 30 -75 40 -106 20 -66 29 -59 -82 -62 -38 0 -73 -7 -82 -14 -13 -11 -15
-11 -13 0 1 7 4 18 8 23 3 6 14 38 23 72 17 61 17 62 -4 84 -12 13 -21 26 -21
29 0 6 -8 17 -48 66 -5 5 -15 20 -21 32 -16 29 -26 28 -29 -5 -3 -33 -4 -34
-44 -42 -34 -7 -34 -7 -24 -66 2 -11 4 -24 5 -28 0 -5 21 -5 45 -2 46 7 52 3
63 -37 10 -39 15 -208 6 -209 -4 0 -15 -2 -23 -4 -8 -2 -25 -6 -38 -9 -12 -3
-26 -7 -30 -10 -13 -8 -62 -17 -127 -23 -65 -6 -65 -6 -15 49 70 79 93 147 54
162 -9 4 -14 -2 -14 -16 0 -19 -4 -20 -42 -14 -49 8 -91 51 -93 95 -1 14 -2
39 -3 55 l-2 28 -18 -22 c-15 -18 -24 -21 -54 -15 -58 11 -60 17 -72 160 -2
28 -7 63 -11 78 l-8 29 44 -6 c106 -14 432 -6 449 10 2 3 14 3 25 0 11 -3 28
-6 37 -6z m-616 -62 c-9 -12 -16 -31 -16 -41 0 -15 -3 -16 -22 -6 -12 7 -30
21 -39 33 -17 20 -17 21 4 28 34 10 59 9 52 -2 -3 -5 -1 -10 4 -10 6 0 11 8
11 18 0 24 14 38 18 18 2 -9 -4 -26 -12 -38z m1890 -18 c-6 -96 -30 -123 -111
-122 -16 0 -38 3 -49 7 -27 11 -46 63 -35 94 10 26 45 61 63 62 17 1 59 9 62
12 1 1 18 2 38 2 l35 0 -3 -55z m-303 -22 c-4 -7 -8 -16 -9 -20 -1 -5 -3 -10
-4 -13 -1 -3 -3 -10 -4 -17 -1 -10 -56 -32 -62 -25 -6 6 -11 67 -6 68 4 1 22
3 41 5 19 2 37 6 39 9 10 10 13 5 5 -7z m-2389 -72 c36 -15 76 -53 76 -72 0
-43 -77 -57 -150 -28 -32 13 -42 23 -50 53 -5 20 -10 42 -10 49 0 17 91 16
134 -2z m-167 -149 c-5 -15 -52 -26 -68 -17 -10 7 -10 14 -1 34 11 24 12 24
42 9 17 -8 29 -20 27 -26z m-226 -80 c-9 -27 -19 -36 -43 -41 -17 -3 -33 -5
-34 -3 -2 2 2 18 8 35 9 23 22 35 43 41 16 4 32 7 33 5 2 -1 -1 -18 -7 -37z
m301 -8 c-2 -7 -12 -25 -23 -40 -19 -27 -21 -27 -38 -11 -21 20 -17 39 10 47
10 4 19 10 19 15 0 4 8 7 18 5 9 -1 16 -8 14 -16z m2557 -20 c-24 -48 -27 -51
-86 -97 -54 -42 -78 -39 -78 8 -1 85 39 126 126 129 l60 2 -22 -42z m-1739
-13 c19 -3 51 -8 70 -11 19 -3 55 -8 78 -10 46 -4 67 -21 78 -64 6 -19 1 -30
-21 -49 -25 -21 -34 -23 -74 -16 -25 5 -77 9 -116 9 -40 0 -79 7 -91 14 -18
12 -24 10 -49 -13 -15 -14 -33 -26 -39 -26 -23 0 -66 46 -72 76 -5 27 -3 32
18 37 12 4 34 17 48 30 41 38 62 41 170 23z m1063 -32 c4 -1 14 -2 23 -3 8 0
22 -17 30 -36 17 -41 18 -48 3 -39 -7 4 -21 8 -33 9 -35 4 -36 4 -30 19 3 8
-3 27 -13 42 -13 21 -14 26 -3 19 8 -5 18 -10 23 -11z m2744 -35 c36 -17 44
-27 53 -62 6 -23 13 -48 15 -54 7 -20 -36 -16 -72 7 -33 20 -64 68 -70 108 -5
28 16 29 74 1z m-1909 -181 c34 -29 -5 -109 -60 -123 -37 -9 -78 36 -78 87 0
34 3 38 33 47 35 10 84 5 105 -11z m67 -181 c-1 -23 -3 -52 -4 -64 -1 -13 -8
-22 -18 -22 -10 0 -29 -2 -43 -3 -21 -3 -26 2 -28 26 -6 54 47 123 85 109 6
-3 10 -21 8 -46z m-2420 -145 c2 -29 -16 -38 -45 -22 -21 11 -21 12 -4 31 23
25 47 21 49 -9z"/>
<path d="M8820 9941 c0 -19 6 -21 58 -21 53 1 55 2 32 14 -14 8 -40 17 -57 21
-29 6 -33 4 -33 -14z"/>
<path d="M2920 9025 c0 -8 2 -15 4 -15 2 0 6 7 10 15 3 8 1 15 -4 15 -6 0 -10
-7 -10 -15z"/>
<path d="M9402 8567 c-14 -17 -37 -86 -31 -91 3 -3 25 -8 49 -11 25 -3 60 -10
79 -16 27 -9 35 -9 42 2 4 8 19 29 33 48 14 19 26 38 26 41 0 4 -20 7 -44 7
-24 1 -52 5 -62 11 -34 17 -82 22 -92 9z"/>
<path d="M6090 7427 c-3 -3 -30 -7 -60 -11 -30 -3 -66 -8 -80 -11 -14 -3 -35
-8 -47 -11 -12 -2 -34 -9 -48 -14 -14 -5 -25 -7 -25 -4 0 4 -7 0 -17 -7 -9 -8
-18 -12 -20 -11 -10 10 -179 -66 -268 -120 -16 -10 -39 -22 -50 -27 -11 -5
-29 -18 -39 -30 -11 -11 -23 -21 -28 -21 -28 0 -179 -157 -254 -266 -87 -124
-166 -308 -189 -439 -17 -102 -26 -238 -21 -330 5 -102 8 -124 20 -187 4 -20
7 -33 20 -83 12 -51 46 -136 83 -212 49 -98 157 -231 230 -280 20 -14 59 -49
85 -77 26 -29 69 -63 95 -76 58 -29 151 -52 159 -39 3 5 1 9 -5 9 -5 0 -12 8
-16 19 -3 10 -19 31 -35 47 -35 34 -37 49 -10 64 24 13 26 30 5 30 -8 0 -15 4
-15 8 0 5 -20 30 -45 58 -24 27 -47 57 -50 67 -4 9 -11 17 -16 17 -5 0 -9 5
-9 11 0 5 -18 36 -39 68 -22 32 -49 74 -60 95 -25 44 -72 156 -65 156 3 0 0 8
-5 18 -10 19 -16 42 -28 117 -8 51 -8 229 0 275 16 95 33 157 50 178 5 6 7 12
3 12 -3 0 3 17 14 37 11 21 20 43 20 50 0 7 4 13 10 13 5 0 12 11 16 25 3 14
10 25 15 25 5 0 9 5 9 12 0 33 136 185 230 257 25 19 47 37 50 41 8 10 91 54
140 75 25 11 61 29 80 42 34 21 43 22 240 19 113 -1 216 -5 230 -9 14 -4 35
-9 46 -11 46 -9 112 -36 195 -79 74 -38 87 -42 95 -29 9 13 16 13 56 -8 48
-23 128 -93 128 -110 0 -5 3 -10 8 -10 4 0 16 -19 26 -42 25 -59 130 -151 149
-132 9 9 -19 56 -60 100 -13 14 -23 29 -23 34 0 6 -4 10 -10 10 -5 0 -10 11
-10 25 0 39 22 30 54 -23 17 -26 36 -54 43 -62 38 -43 63 -80 84 -120 13 -25
26 -47 29 -50 3 -3 12 -25 20 -50 7 -25 15 -49 17 -55 11 -36 20 -125 22 -215
3 -128 -8 -131 -23 -6 -6 47 -8 49 -29 33 -10 -7 -21 -37 -27 -72 -6 -33 -13
-76 -16 -95 -3 -19 -9 -42 -14 -50 -4 -8 -10 -30 -13 -47 -6 -28 -4 -33 13
-33 11 0 24 9 30 21 15 26 43 54 69 69 18 9 21 8 21 -9 0 -11 3 -26 6 -34 4
-11 -6 -21 -30 -32 -20 -10 -36 -21 -36 -26 0 -5 -7 -9 -15 -9 -18 0 -29 -41
-21 -80 3 -17 1 -30 -4 -30 -19 0 -89 -52 -95 -70 -3 -10 4 -35 17 -55 l22
-38 -23 -18 c-12 -10 -27 -16 -34 -14 -13 5 -70 -66 -107 -132 -13 -24 -26
-43 -29 -43 -11 0 -57 -45 -81 -80 -28 -41 -97 -110 -109 -110 -4 0 -16 -9
-26 -20 -10 -11 -21 -17 -25 -15 -4 3 -13 -2 -20 -10 -6 -8 -28 -19 -48 -26
-20 -6 -56 -21 -81 -32 -25 -12 -49 -22 -53 -23 -5 -1 -10 -3 -13 -4 -3 -1 -9
-4 -15 -5 -5 -1 -11 -3 -12 -5 -3 -2 -29 -8 -73 -17 -43 -10 -324 -9 -432 0
-88 8 -91 8 -86 -11 5 -21 86 -62 121 -62 11 0 34 -3 52 -7 l33 -6 -34 -18
c-24 -12 -29 -19 -19 -22 139 -47 140 -47 194 -24 44 20 147 22 195 6 27 -9
43 -8 94 10 34 12 74 29 90 37 15 9 60 24 100 35 81 22 147 48 147 59 0 5 11
11 25 14 14 4 25 11 25 16 0 6 5 10 11 10 6 0 16 6 24 13 7 6 28 23 46 37 40
30 165 155 194 194 11 14 25 32 32 40 20 22 95 148 124 207 26 52 87 216 94
249 28 143 29 209 9 463 -4 53 -3 77 5 77 6 0 12 -4 12 -10 2 -14 6 -30 9 -32
13 -14 19 -291 7 -373 -10 -74 -16 -117 -22 -145 -10 -48 -17 -130 -11 -130
15 0 62 124 73 193 9 59 9 288 1 372 -8 80 -12 102 -28 165 -7 25 -13 50 -14
55 -3 16 -45 109 -56 125 -6 8 -13 23 -16 33 -4 9 -10 17 -15 17 -5 0 -9 6 -9
13 0 6 -11 25 -25 41 -19 22 -22 32 -13 38 7 4 9 8 3 8 -5 0 -4 4 4 9 12 8 8
19 -20 63 -43 68 -56 82 -159 185 -47 47 -121 110 -166 141 -78 56 -91 64
-159 102 -40 22 -130 58 -245 96 -47 15 -100 40 -118 55 -25 20 -41 25 -65 21
-38 -5 -38 -5 -152 3 -49 4 -92 5 -95 2z m500 -202 c36 -9 81 -23 100 -32 107
-45 156 -69 168 -80 7 -7 18 -13 23 -13 17 0 122 -76 175 -126 28 -27 68 -66
90 -86 55 -53 84 -89 84 -105 0 -24 -14 -14 -101 70 -104 99 -136 127 -148
127 -5 0 -11 3 -13 8 -14 32 -288 171 -419 212 -57 18 -107 36 -111 39 -14 12
88 3 152 -14z m-684 -129 c3 -8 1 -23 -4 -32 -9 -16 -11 -15 -21 5 -12 22 -7
41 10 41 5 0 12 -6 15 -14z m-98 -36 c11 -17 10 -21 -5 -27 -10 -4 -61 -33
-113 -65 -93 -58 -132 -74 -94 -40 29 26 82 62 91 62 4 1 25 23 46 50 39 51
53 54 75 20z m1025 -27 c20 -9 37 -20 37 -25 0 -4 6 -8 13 -8 6 0 30 -17 53
-37 22 -21 57 -53 77 -71 20 -18 37 -36 37 -40 0 -4 13 -20 28 -37 40 -43 72
-92 77 -114 2 -11 9 -29 15 -41 10 -19 10 -20 -9 -8 -12 7 -21 17 -21 23 0 5
-11 21 -24 35 -14 14 -51 54 -83 89 -98 108 -155 161 -173 161 -6 0 -10 4 -10
10 0 5 -11 12 -25 16 -14 3 -25 10 -25 15 0 5 -5 9 -11 9 -14 0 -39 26 -39 40
0 13 24 8 83 -17z m540 -599 c-9 -23 -22 -16 -38 22 -21 50 -19 52 14 20 16
-16 27 -35 24 -42z"/>
<path d="M7021 6549 c-35 -35 -34 -45 9 -54 19 -4 30 -13 30 -23 0 -37 37
-119 68 -149 55 -55 61 -41 26 60 -7 21 -11 50 -8 66 5 22 1 31 -20 44 -14 10
-26 22 -26 27 0 5 -11 21 -24 35 l-24 26 -31 -32z"/>
<path d="M2540 4284 c-12 -30 -8 -39 15 -31 17 7 21 42 5 52 -6 3 -15 -6 -20
-21z"/>
<path d="M9930 3432 c-21 -23 -65 -50 -92 -58 -5 -1 -9 -2 -10 -4 -2 -1 -11
-3 -21 -5 -37 -7 -132 -38 -141 -47 -6 -4 -19 -8 -30 -8 -29 0 -8 -18 29 -24
17 -3 44 -9 60 -13 58 -13 110 -7 160 17 28 13 52 27 55 30 9 12 70 41 83 39
6 -1 23 -1 37 0 24 2 24 3 4 11 -11 4 -35 27 -53 49 -18 23 -38 41 -45 41 -6
0 -23 -12 -36 -28z"/>
<path d="M7397 3174 c-3 -3 -45 -12 -87 -20 -79 -13 -110 -25 -111 -43 -3 -56
-9 -89 -18 -114 -10 -27 -10 -27 17 -23 15 2 28 5 30 6 1 2 5 3 10 4 4 1 23 7
43 14 20 7 46 15 59 17 28 5 22 -1 59 70 34 66 39 92 16 92 -8 0 -16 -2 -18
-3z"/>
<path d="M6990 3130 c0 -5 9 -10 21 -10 11 0 17 5 14 10 -3 6 -13 10 -21 10
-8 0 -14 -4 -14 -10z"/>
<path d="M7562 1833 c2 -5 9 -21 17 -38 7 -16 21 -47 32 -67 10 -20 19 -43 19
-51 0 -8 9 -25 20 -38 l19 -24 -9 33 c-5 17 -7 32 -5 32 8 0 -35 102 -55 129
-18 27 -48 45 -38 24z"/>
</g>
</svg>
